<svg width="2667" height="814" fill="none" xmlns="http://www.w3.org/2000/svg"><g clip-path="url(#clip0)" fill-rule="evenodd" clip-rule="evenodd"><path d="M884.422 591.5l143.998 224c1.5 2.5 3 6 3 9 0 2-1 5.5-2 7.5-3 5-8.5 8-14 8H726.922c-5 0-11.5-3.5-14-8-.921-1.843-1.842-4.957-1.982-7h-59.159c-8.156 0-12.375-9.563-7.031-15.75L670.063 780h-10.125c-7.313 0-11.25-8.157-6.469-13.5l26.719-31.5h-12.657c-6.187 0-9.281-6.188-5.625-10.407l37.969-41.062c2.813-3.094 8.156-3.094 10.969 0l37.969 41.062c3.656 4.219.562 10.407-5.625 10.407h-12.375l19.83 23.378L857.922 591.5c2.5-4.5 8-7.5 13.5-7.5 5 0 10.5 3 13 7.5zm29.5 104.5l-42.5-66-51.5 79 19.5 19 32-32h42.5zM2551.5 746h-117c-2.53 0-4.5-1.969-4.5-4.5v-9c0-2.25 1.97-4.5 4.5-4.5h5.06c3.94-22.5 21.66-40.219 44.44-44.156V678.5c0-2.25 1.97-4.5 4.5-4.5h9c2.25 0 4.5 2.25 4.5 4.5v5.344c22.5 3.937 40.22 21.656 44.16 44.156h5.34c2.25 0 4.5 2.25 4.5 4.5v9c0 2.531-2.25 4.5-4.5 4.5zm4.5 54h4.5c2.25 0 4.5 2.25 4.5 4.5v9c0 2.531-2.25 4.5-4.5 4.5h-135c-2.53 0-4.5-1.969-4.5-4.5v-9c0-2.25 1.97-4.5 4.5-4.5h4.5v-4.5c0-2.25 1.97-4.5 4.5-4.5h4.5v-36h18v36h27v-36h18v36h27v-36h18v36h4.5c2.25 0 4.5 2.25 4.5 4.5v4.5zM435.5 819.909l-97-148.5c-5.5-9-20-9-25.5 0l-16.5 25 34 53c1 2 .5 4.5-1.5 5.5l-6.5 4.5c-2 1-4.5.5-5.5-1.5l-30-46.5-35.5-55.5c-6-9.5-21.5-9.5-27.5 0l-62.044 96.944L146.813 735h12.375c6.187 0 9.281-6.188 5.625-10.407l-37.969-41.062c-2.813-3.094-8.156-3.094-10.969 0l-37.969 41.062C74.25 728.812 77.344 735 83.531 735h12.657l-26.719 31.5c-4.781 5.343-.844 13.5 6.469 13.5h10.125L60.75 809.25c-5.343 6.187-1.125 15.75 7.031 15.75h50.058c-.49 7.836 5.821 15.409 15.161 15.409h290.5c11 0 18-11.5 12-20.5zm1412-137.409c0 2.531-2.25 4.5-4.5 4.5h-4.5v108h4.5c2.25 0 4.5 2.25 4.5 4.5v9c0 2.531-2.25 4.5-4.5 4.5h-67.5v-22.5c0-2.25-2.25-4.5-4.5-4.5h-9c-2.53 0-4.5 2.25-4.5 4.5V813H1690c-2.53 0-4.5-1.969-4.5-4.5v-9c0-2.25 1.97-4.5 4.5-4.5h4.22V687H1690c-2.53 0-4.5-1.969-4.5-4.5v-9c0-2.25 1.97-4.5 4.5-4.5h153c2.25 0 4.5 2.25 4.5 4.5v9zm-86.62 13.5c-1.69 0-3.38 1.968-3.38 3.656v10.969c0 1.687 1.69 3.375 3.38 3.375h10.96c1.69 0 3.66-1.688 3.66-3.375v-10.969c0-1.688-1.97-3.656-3.66-3.656h-10.96zm0 27c-1.69 0-3.38 1.968-3.38 3.656v10.969c0 1.687 1.69 3.375 3.38 3.375h10.96c1.69 0 3.66-1.688 3.66-3.375v-10.969c0-1.688-1.97-3.656-3.66-3.656h-10.96zm-36-27c-1.69 0-3.38 1.968-3.38 3.656v10.969c0 1.687 1.69 3.375 3.38 3.375h10.96c1.69 0 3.66-1.688 3.66-3.375v-10.969c0-1.688-1.97-3.656-3.66-3.656h-10.96zm0 45h10.96c1.69 0 3.66-1.688 3.66-3.375v-10.969c0-1.688-1.97-3.656-3.66-3.656h-10.96c-1.69 0-3.38 1.968-3.38 3.656v10.969c0 1.687 1.69 3.375 3.38 3.375zm41.62 9c-15.19 0-27 12.093-27 27h54c0-14.907-12.09-27-27-27zm41.34-9c1.69 0 3.66-1.688 3.66-3.375v-10.969c0-1.688-1.97-3.656-3.66-3.656h-10.96c-1.69 0-3.38 1.968-3.38 3.656v10.969c0 1.687 1.69 3.375 3.38 3.375h10.96zm0-27c1.69 0 3.66-1.688 3.66-3.375v-10.969c0-1.688-1.97-3.656-3.66-3.656h-10.96c-1.69 0-3.38 1.968-3.38 3.656v10.969c0 1.687 1.69 3.375 3.38 3.375h10.96zm420.41 9H2190v-47.25c0-3.657-3.09-6.75-6.75-6.75h-40.5c-3.94 0-6.75 3.093-6.75 6.75V696h-18v-22.5c0-2.25-2.25-4.5-4.5-4.5h-4.5c-2.53 0-4.5 2.25-4.5 4.5V696h-18v-22.5c0-2.25-2.25-4.5-4.5-4.5h-4.5c-2.53 0-4.5 2.25-4.5 4.5V696h-11.25c-3.94 0-6.75 3.093-6.75 6.75V804c0 5.062 3.94 9 9 9h162c4.78 0 9-3.938 9-9v-74.25c0-3.657-3.09-6.75-6.75-6.75zM2091 782.625c0 1.968-1.69 3.375-3.38 3.375h-11.25c-1.96 0-3.37-1.407-3.37-3.375v-11.25c0-1.688 1.41-3.375 3.37-3.375h11.25c1.69 0 3.38 1.687 3.38 3.375v11.25zm0-27c0 1.968-1.69 3.375-3.38 3.375h-11.25c-1.96 0-3.37-1.407-3.37-3.375v-11.25c0-1.688 1.41-3.375 3.37-3.375h11.25c1.69 0 3.38 1.687 3.38 3.375v11.25zm0-27c0 1.968-1.69 3.375-3.38 3.375h-11.25c-1.96 0-3.37-1.407-3.37-3.375v-11.25c0-1.688 1.41-3.375 3.37-3.375h11.25c1.69 0 3.38 1.687 3.38 3.375v11.25zm36 54c0 1.968-1.69 3.375-3.38 3.375h-11.25c-1.96 0-3.37-1.407-3.37-3.375v-11.25c0-1.688 1.41-3.375 3.37-3.375h11.25c1.69 0 3.38 1.687 3.38 3.375v11.25zm0-27c0 1.968-1.69 3.375-3.38 3.375h-11.25c-1.96 0-3.37-1.407-3.37-3.375v-11.25c0-1.688 1.41-3.375 3.37-3.375h11.25c1.69 0 3.38 1.687 3.38 3.375v11.25zm0-27c0 1.968-1.69 3.375-3.38 3.375h-11.25c-1.96 0-3.37-1.407-3.37-3.375v-11.25c0-1.688 1.41-3.375 3.37-3.375h11.25c1.69 0 3.38 1.687 3.38 3.375v11.25zm45 27c0 1.968-1.69 3.375-3.38 3.375h-11.25c-1.96 0-3.37-1.407-3.37-3.375v-11.25c0-1.688 1.41-3.375 3.37-3.375h11.25c1.69 0 3.38 1.687 3.38 3.375v11.25zm0-27c0 1.968-1.69 3.375-3.38 3.375h-11.25c-1.96 0-3.37-1.407-3.37-3.375v-11.25c0-1.688 1.41-3.375 3.37-3.375h11.25c1.69 0 3.38 1.687 3.38 3.375v11.25zm0-27c0 1.968-1.69 3.375-3.38 3.375h-11.25c-1.96 0-3.37-1.407-3.37-3.375v-11.25c0-1.688 1.41-3.375 3.37-3.375h11.25c1.69 0 3.38 1.687 3.38 3.375v11.25zm45 81c0 1.968-1.69 3.375-3.38 3.375h-11.25c-1.96 0-3.37-1.407-3.37-3.375v-11.25c0-1.688 1.41-3.375 3.37-3.375h11.25c1.69 0 3.38 1.687 3.38 3.375v11.25zm0-27c0 1.968-1.69 3.375-3.38 3.375h-11.25c-1.96 0-3.37-1.407-3.37-3.375v-11.25c0-1.688 1.41-3.375 3.37-3.375h11.25c1.69 0 3.38 1.687 3.38 3.375v11.25zM2023.5 804h5.62c1.69 0 3.38 1.688 3.38 3.375V813h-126v-5.625c0-1.687 1.41-3.375 3.37-3.375h5.63V675.75c0-3.656 2.81-6.75 6.75-6.75h94.5c3.66 0 6.75 3.094 6.75 6.75V804zm-77.63-117c-1.96 0-3.37 1.688-3.37 3.375v11.25c0 1.969 1.41 3.375 3.37 3.375h11.25c1.69 0 3.38-1.406 3.38-3.375v-11.25c0-1.687-1.69-3.375-3.38-3.375h-11.25zm0 27c-1.96 0-3.37 1.688-3.37 3.375v11.25c0 1.969 1.41 3.375 3.37 3.375h11.25c1.69 0 3.38-1.406 3.38-3.375v-11.25c0-1.687-1.69-3.375-3.38-3.375h-11.25zm0 45h11.25c1.69 0 3.38-1.406 3.38-3.375v-11.25c0-1.687-1.69-3.375-3.38-3.375h-11.25c-1.96 0-3.37 1.688-3.37 3.375v11.25c0 1.969 1.41 3.375 3.37 3.375zm14.63 45h18v-23.625c0-1.687-1.69-3.375-3.38-3.375h-11.25c-1.96 0-3.37 1.688-3.37 3.375V804zm32.62-45c1.69 0 3.38-1.406 3.38-3.375v-11.25c0-1.687-1.69-3.375-3.38-3.375h-11.25c-1.96 0-3.37 1.688-3.37 3.375v11.25c0 1.969 1.41 3.375 3.37 3.375h11.25zm0-27c1.69 0 3.38-1.406 3.38-3.375v-11.25c0-1.687-1.69-3.375-3.38-3.375h-11.25c-1.96 0-3.37 1.688-3.37 3.375v11.25c0 1.969 1.41 3.375 3.37 3.375h11.25zm0-27c1.69 0 3.38-1.406 3.38-3.375v-11.25c0-1.687-1.69-3.375-3.38-3.375h-11.25c-1.96 0-3.37 1.688-3.37 3.375v11.25c0 1.969 1.41 3.375 3.37 3.375h11.25zM585.656 780l25.313 29.25c5.344 6.187 1.125 15.75-7.031 15.75H448.781c-8.156 0-12.375-9.563-7.031-15.75L467.063 780h-10.125c-7.313 0-11.25-8.157-6.469-13.5l26.719-31.5h-12.657c-6.187 0-9.281-6.188-5.625-10.407l37.969-41.062c2.813-3.094 8.156-3.094 10.969 0l18.516 20.024 18.515-20.024c2.813-3.094 8.156-3.094 10.969 0l37.969 41.062c3.656 4.219.562 10.407-5.625 10.407h-12.375l26.718 31.5c4.5 5.343.563 13.5-6.75 13.5h-10.125z" fill="#001D40"/><path d="M529.125 209.437l4.062-8.312c.75-1.5 2.875-1.438 3.563 0l4.125 8.312L550 210.75c1.625.25 2.25 2.25 1.062 3.437l-6.562 6.438 1.562 9.062c.25 1.625-1.5 2.875-2.937 2.125L535 227.5l-8.188 4.312c-1.437.75-3.187-.5-2.937-2.125l1.562-9.062-6.562-6.438c-1.188-1.187-.563-3.187 1.062-3.437l9.188-1.313zm1483.835 45.281c-5.16 6.338-12.89 10.097-21.38 10.097a27.418 27.418 0 0 1-27.5-27.5c0-15.146 12.25-27.5 27.5-27.5l.8.058c1.36.094 3.08.214 4.15.48 1.18.214 1.5 1.718.43 2.363-6.77 3.867-10.85 10.957-10.85 18.691 0 13.535 12.24 23.74 25.56 21.162 1.18-.214 2.04 1.182 1.29 2.149z" fill="#FFD43B"/><path d="M230 242.5c-4.125-1.5-7.125.5-9.375 2.125-2.125 1.375-3 1.75-4 1.375s-1.375-1.125-2-3.625c-.375-1.75-.875-3.75-2.25-5.375.375-.375.625-.75.875-1.125 1.25 1.25 2.875 2.125 5.25 2.125 4.048 0 6.17-3.009 7.665-5.13l.085-.12c1.25-2 1.875-2.75 2.75-2.75 1.625 0 3-1.25 3-3 0-1.625-1.375-3-3-3-4.096 0-6.218 3.019-7.709 5.14l-.052.074-.114.161c-1.25 2-1.875 2.625-2.625 2.625-.97 0-1.987-1.418-3.431-3.432-1.905-2.656-4.553-6.349-8.819-9.193l2.125-4.375c4.25-.25 7.625-3.75 7.625-8 0-4.375-3.625-8-8-8-4.5 0-8 3.625-8 8 0 1.75.375 3.25 1.25 4.5L199 216c-2.125-.625-4.5-1-7-1-2.625 0-5 .375-7.125 1l-2.25-4.5c.875-1.25 1.375-2.75 1.375-4.5 0-4.375-3.625-8-8-8-4.5 0-8 3.625-8 8 0 4.25 3.25 7.75 7.5 8l2.125 4.375c-4.329 2.886-6.992 6.646-8.878 9.31-1.383 1.952-2.348 3.315-3.247 3.315-.875 0-1.5-.625-2.75-2.625l-.17-.242c-1.491-2.121-3.609-5.133-7.58-5.133-1.75 0-3 1.375-3 3 0 1.75 1.25 3 3 3 .75 0 1.375.75 2.625 2.75l.082.117c1.496 2.121 3.62 5.133 7.793 5.133 2.25 0 3.875-.875 5.125-2.125.25.375.5.75.875 1.125-1.375 1.625-1.875 3.625-2.25 5.375-.625 2.5-1 3.25-2 3.625s-1.875 0-4-1.375C161 243 158 241 153.875 242.5c-1.5.625-2.375 2.375-1.75 3.875.625 1.625 2.375 2.375 3.875 1.75 1-.375 1.75 0 3.875 1.375 1.75 1.25 3.875 2.625 6.625 2.625.875 0 1.875-.125 2.875-.5 4.125-1.625 5-5.125 5.625-7.875.25-1 .5-1.75.75-2.25 2.125 1.625 4.625 3.125 7.75 4.25-1.25 4.625-4 11.25-7.5 11.25-1.75 0-3 1.375-3 3 0 1.75 1.25 3 3 3 8.25 0 12.125-11 13.375-16.125C190.25 247 191 247 192 247c.875 0 1.625 0 2.5-.125C195.75 252 199.625 263 208 263c1.625 0 3-1.25 3-3 0-1.625-1.375-3-3-3-3.5 0-6.375-6.625-7.625-11.25 3.125-1.125 5.625-2.625 7.75-4.25.25.5.5 1.25.75 2.25.625 2.75 1.625 6.25 5.625 7.875 1 .375 2 .5 2.875.5 2.75 0 4.875-1.375 6.625-2.625 2.125-1.375 2.875-1.75 3.875-1.375 1.5.625 3.25-.125 3.875-1.75.625-1.5-.25-3.25-1.75-3.875zM208 205c1 0 2 1 2 2 0 1.125-1 2-2 2-1.125 0-2-.875-2-2 0-1 .875-2 2-2zm-32 0c1 0 2 1 2 2 0 1.125-1 2-2 2-1.125 0-2-.875-2-2 0-1 .875-2 2-2zm642.25 544c4.5 2 8 4.75 10.75 8.75 2.5 4 4 8.5 4 13.25 0 6.75-2.5 12.5-7 17-4.75 4.75-10.5 7-17 7h-32v14.25l7.5 12c1.25 2.75-.75 6-3.75 6H757c-3 0-5-3.25-3.75-6l7.75-12V795h-32c-6.75 0-12.5-2.25-17-7-4.75-4.5-7-10.25-7-17 0-4.75 1.25-9.25 4-13.25 2.5-4 6.25-6.75 10.75-8.75-2.5-4-3.25-8-2.75-12.25s2.25-8 5.25-11c2.75-3 6.25-5.25 10.25-6.25s8.25-.5 12.5 1.25c.5-6 3.25-11.25 7.75-15.5 4.5-4 10-6.25 16.25-6.25 6 0 11.5 2.25 16 6.25 4.5 4.25 7.25 9.5 8 15.5 4-1.75 8.25-2.25 12.25-1.25s7.5 3.25 10.5 6.25c2.75 3 4.5 6.75 5 11S820.5 745 818.5 749h-.25zm-414.688-30.312h-1.361c-1.121-1.522-2.963-2.563-5.045-2.563a6.374 6.374 0 0 0-6.406 6.406v1.682l-29.789 23.463c-.561.4-.961 1.281-.961 1.922 0 1.841 1.842 2.963 3.443 2.162l9.77-4.885h7.687l3.251 8.741A2.998 2.998 0 0 0 383 758v10c0 1.75 1.25 3 3 3h48.125c1 0 2-.375 2.875-1.125l5.375-5.375c.75-.75.75-2.125 0-2.875L437 756.25c-.75-.75-1.875-1.25-2.875-1.25H415v-2c0-1-1-2-2-2h-4c-1.125 0-2 1-2 2v2h-11.28l-3.208-8.686c6.326-1.921 11.05-7.767 11.05-14.814v-6.406l7.688-1.282c0-2.802-3.443-5.124-7.688-5.124zM391.609 755h-3.578l-3.047-8.125h3.604l3.021 8.125zm5.547-30.547c-1.121 0-1.922-.801-1.922-1.922 0-1.041.801-1.922 1.922-1.922 1.041 0 1.922.881 1.922 1.922 0 1.121-.881 1.922-1.922 1.922zM409 815c-1.125 0-2-.875-2-2v-14h8v14c0 1.125-1 2-2 2h-4zm6-36h21c1.625 0 3 1.375 3 3v10c0 1.75-1.375 3-3 3h-48.25c-1 0-2-.375-2.75-1.125l-5.5-5.375c-.75-.75-.75-2.125 0-2.875l5.5-5.375c.75-.75 1.75-1.25 2.75-1.25H407v-4h8v4zm232-22c0 3.375-2.75 6-6 6-3.375 0-6-2.625-6-6 0-3.25 2.625-6 6-6 3.25 0 6 2.75 6 6zm-31.75 15.625c-.75.625-2 .5-2.75-.25l-5.125-6.25a1.98 1.98 0 0 1 .25-2.75l7.25-6.125c4-3.375 10-2.75 13.625 1.5.625.75.625 2-.25 2.75l-13 11.125zm5 22.375h.75c1 0 2 1 2 2v4c0 1.125-1 2-2 2h-.75c-.125.875-.625 2-1 2.625l.375.5c.375.375.625 1 .625 1.375 0 .5-.25 1.125-.625 1.5l-2.75 2.75c-.375.375-1 .625-1.5.625-.375 0-1-.25-1.375-.625l-.5-.375c-.625.375-1.75.875-2.5 1V813c0 1.125-1 2-2 2h-4c-1.125 0-2-.875-2-2v-.625c-.875-.125-2-.625-2.625-1l-.5.375c-.375.375-1 .625-1.375.625-.5 0-1.125-.25-1.5-.625l-2.75-2.75c-.375-.375-.625-1-.625-1.5 0-.375.25-1 .625-1.375l.375-.5c-.375-.625-.875-1.75-1-2.625H593c-1.125 0-2-.875-2-2v-4c0-1 .875-2 2-2h.625c.125-.75.625-1.875 1-2.5l-.375-.5c-.375-.375-.625-1-.625-1.375 0-.5.25-1.125.625-1.5l2.75-2.75c.375-.375 1-.625 1.5-.625.375 0 1 .25 1.375.625l.5.375c.625-.375 1.75-.875 2.625-1V785c0-1 .875-2 2-2h4c1 0 2 1 2 2v.75c.75.125 1.875.625 2.5 1l.5-.375c.375-.375 1-.625 1.375-.625.5 0 1.125.25 1.5.625l2.75 2.75c.375.375.625 1 .625 1.5 0 .375-.25 1-.625 1.375l-.375.5c.375.625.875 1.75 1 2.5zM599 799c0 4.5 3.5 8 8 8 4.375 0 8-3.5 8-8 0-4.375-3.625-8-8-8-4.5 0-8 3.625-8 8zm69.25-4h.75c1 0 2 1 2 2v4c0 1.125-1 2-2 2h-.75c-.125.875-.625 2-1 2.625l.375.5c.375.375.625 1 .625 1.375 0 .5-.25 1.125-.625 1.5l-2.75 2.75c-.375.375-1 .625-1.5.625-.375 0-1-.25-1.375-.625l-.5-.375c-.625.375-1.75.875-2.5 1V813c0 1.125-1 2-2 2h-4c-1.125 0-2-.875-2-2v-.625c-.875-.125-2-.625-2.625-1l-.5.375c-.375.375-1 .625-1.375.625-.5 0-1.125-.25-1.5-.625l-2.75-2.75c-.375-.375-.625-1-.625-1.5 0-.375.25-1 .625-1.375l.375-.5c-.375-.625-.875-1.75-1-2.625H641c-1.125 0-2-.875-2-2v-4c0-1 .875-2 2-2h.625c.125-.75.625-1.875 1-2.5l-.375-.5c-.375-.375-.625-1-.625-1.375 0-.5.25-1.125.625-1.5l2.75-2.75c.375-.375 1-.625 1.5-.625.375 0 1 .25 1.375.625l.5.375c.625-.375 1.75-.875 2.625-1V785c0-1 .875-2 2-2h4c1 0 2 1 2 2v.75c.75.125 1.875.625 2.5 1l.5-.375c.375-.375 1-.625 1.375-.625.5 0 1.125.25 1.5.625l2.75 2.75c.375.375.625 1 .625 1.5 0 .375-.25 1-.625 1.375l-.375.5c.375.625.875 1.75 1 2.5zM647 799c0 4.5 3.5 8 8 8 4.375 0 8-3.5 8-8 0-4.375-3.625-8-8-8-4.5 0-8 3.625-8 8zm-4.125-20c-.75 0-1.875-.375-2.375-.875L635.25 774l-7.25 6.25 5.125 3.5c1 .625 1.75 2.125 1.875 3.25v16c0 2.25-1.875 4-4 4-2.25 0-4-1.75-4-4v-13.75l-10.25-6.875c-1-.625-1.75-2.125-1.75-3.375 0-1 .625-2.375 1.375-3l14-12c.625-.5 1.75-1 2.625-1 .75 0 1.875.5 2.5.875l8.875 7.125H651c2.125 0 4 1.875 4 4 0 2.25-1.875 4-4 4h-8.125zM923 756c0 3.375-2.75 6-6 6-3.375 0-6-2.625-6-6 0-3.25 2.625-6 6-6 3.25 0 6 2.75 6 6zm-4.125 22c-.75 0-1.875-.375-2.375-.875L911.25 773l-7.25 6.25 5.125 3.5c1 .625 1.75 2.125 1.875 3.25v16c0 2.25-1.875 4-4 4-2.25 0-4-1.75-4-4v-13.75l-10.25-6.875c-1-.625-1.75-2.125-1.75-3.375 0-1 .625-2.375 1.375-3l14-12c.625-.5 1.75-1 2.625-1 .75 0 1.875.5 2.5.875l8.875 7.125H927c2.125 0 4 1.875 4 4 0 2.25-1.875 4-4 4h-8.125zM915 798c0-8.75 7.125-16 16-16 8.75 0 16 7.25 16 16 0 8.875-7.25 16-16 16-8.875 0-16-7.125-16-16zm8 0c0 4.5 3.5 8 8 8 4.375 0 8-3.5 8-8 0-4.375-3.625-8-8-8-4.5 0-8 3.625-8 8zm-56 0c0-8.75 7.125-16 16-16 8.75 0 16 7.25 16 16 0 8.875-7.25 16-16 16-8.875 0-16-7.125-16-16zm8 0c0 4.5 3.5 8 8 8 4.375 0 8-3.5 8-8 0-4.375-3.625-8-8-8-4.5 0-8 3.625-8 8zm1534.64 12h2.49c-1.53-1.442-2.49-3.364-2.49-5.125 0-2.083 1.76-4.165 3.77-4.885v-7.928h-3.77c-1.68 0-2.88-1.441-2.56-3.043.88-3.924 3.6-7.207 7.69-7.207v-2.562c3.84 0 5.92 5.044 7.12 8.728l5.21 15.695c.16.321.48.561.8.401l1.28-.401c.32-.08.48-.48.4-.8l-2.8-8.329c-3.76-11.371 4.08-20.419 11.05-20.419 5.61 0 10.17 4.644 10.17 10.25 0 5.685-4.56 10.25-10.17 10.25h-.08c1.68 2.242 2.64 4.964 2.56 8.007-.08 7.047-6.32 12.493-13.45 12.493h-18.5c-.72 0-1.28-.561-1.28-1.282v-1.281c0-1.361 1.12-2.562 2.56-2.562zm3.85-24.344c-.72 0-1.28.64-1.28 1.281 0 .721.56 1.281 1.28 1.281.64 0 1.28-.56 1.28-1.281 0-.641-.64-1.281-1.28-1.281zM2385 757.75c-2.75-4-6.25-6.75-10.75-8.75h.25c2-4 2.75-8 2.25-12.25s-2.25-8-5-11c-3-3-6.5-5.25-10.5-6.25s-8.25-.5-12.25 1.25c-.75-6-3.5-11.25-8-15.5-4.5-4-10-6.25-16-6.25-6.25 0-11.75 2.25-16.25 6.25-4.5 4.25-7.25 9.5-7.75 15.5-4.25-1.75-8.5-2.25-12.5-1.25s-7.5 3.25-10.25 6.25c-3 3-4.75 6.75-5.25 11s.25 8.25 2.75 12.25c-4.5 2-8.25 4.75-10.75 8.75-2.75 4-4 8.5-4 13.25 0 6.75 2.25 12.5 7 17 4.5 4.75 10.25 7 17 7h32v14.25l-7.75 12c-1.25 2.75.75 6 3.75 6h23.75c3 0 5-3.25 3.75-6l-7.5-12V795h32c6.5 0 12.25-2.25 17-7 4.5-4.5 7-10.25 7-17 0-4.75-1.5-9.25-4-13.25zM1880 780h7.38c1 0 1.75 1 1.5 1.875l-.75 3c-.13.75-.75 1.125-1.38 1.125h-2.62c1.75 1.5 2.87 3.625 2.87 6v6c0 2.125-.87 3.875-2 5.25V810c0 2.25-1.87 4-4 4h-4c-2.25 0-4-1.75-4-4v-4h-32v4c0 2.25-1.87 4-4 4h-4c-2.25 0-4-1.75-4-4v-6.75c-1.25-1.375-2-3.125-2-5.25v-6c0-2.375 1-4.5 2.75-6h-2.5c-.75 0-1.37-.375-1.5-1.125l-.75-3c-.25-.875.5-1.875 1.5-1.875h7.38l2.12-5.125c2.13-5.375 7.25-8.875 13-8.875h15.88c5.75 0 10.87 3.5 13 8.875L1880 780zm-31-6c-2.5 0-4.62 1.5-5.62 3.875L1841 784h32l-2.5-6.125c-1-2.375-3.12-3.875-5.62-3.875H1849zm-16 20c0 2.5 1.5 4 4 4 .28 0 .57.005.87.01 2.3.04 5.13.089 5.13-2.01 0-2.375-3.62-6-6-6-2.5 0-4 1.625-4 4zm43.08 4.01c.32-.005.63-.01.92-.01 2.38 0 4-1.5 4-4 0-2.375-1.62-4-4-4-2.5 0-6 3.625-6 6 0 2.096 2.73 2.05 5.08 2.01zM205.125 509.437l4.063-8.312c.75-1.5 2.875-1.438 3.562 0l4.125 8.312L226 510.75c1.625.25 2.25 2.25 1.062 3.437l-6.562 6.438 1.563 9.062c.25 1.625-1.5 2.875-2.938 2.125L211 527.5l-8.187 4.312c-1.438.75-3.188-.5-2.938-2.125l1.562-9.062-6.562-6.438c-1.188-1.187-.563-3.187 1.062-3.437l9.188-1.313zM2163.19 341.125l-4.06 8.312-9.19 1.313c-1.63.25-2.25 2.25-1.06 3.437l6.56 6.438-1.56 9.062c-.25 1.625 1.5 2.875 2.93 2.125l8.19-4.312 8.13 4.312c1.43.75 3.18-.5 2.93-2.125l-1.56-9.062 6.56-6.438c1.19-1.187.57-3.187-1.06-3.437l-9.12-1.313-4.13-8.312c-.69-1.438-2.81-1.5-3.56 0zm387.94 99.312l4.06-8.312c.75-1.5 2.87-1.438 3.56 0l4.13 8.312 9.12 1.313c1.63.25 2.25 2.25 1.06 3.437l-6.56 6.438 1.56 9.062c.25 1.625-1.5 2.875-2.93 2.125L2557 458.5l-8.19 4.312c-1.43.75-3.18-.5-2.93-2.125l1.56-9.062-6.56-6.438c-1.19-1.187-.57-3.187 1.06-3.437l9.19-1.313z" fill="#F8F9FA"/><path d="M260.5 240c0 1.828-.422 3.375-.984 4.921 8.296 1.688 14.484 9 14.484 17.579 0 9.984-8.156 18-18 18h-51.75c-11.25 0-20.25-9-20.25-20.25 0-8.719 5.625-16.313 13.5-18.985V240c0-12.375 9.984-22.5 22.5-22.5 8.297 0 15.609 4.64 19.406 11.39 2.11-1.547 4.782-2.39 7.594-2.39 7.453 0 13.5 6.046 13.5 13.5zm459 122c0 1.828-.422 3.375-.984 4.921 8.296 1.688 14.484 9 14.484 17.579 0 9.984-8.156 18-18 18h-51.75c-11.25 0-20.25-9-20.25-20.25 0-8.719 5.625-16.313 13.5-18.985V362c0-12.375 9.984-22.5 22.5-22.5 8.297 0 15.609 4.64 19.406 11.39 2.11-1.547 4.782-2.39 7.594-2.39 7.453 0 13.5 6.046 13.5 13.5zM523.188 465.125l-4.063 8.312-9.187 1.313c-1.626.25-2.25 2.25-1.063 3.437l6.563 6.438-1.563 9.062c-.25 1.625 1.5 2.875 2.937 2.125L525 491.5l8.125 4.312c1.437.75 3.187-.5 2.937-2.125l-1.562-9.062 6.562-6.438c1.188-1.187.563-3.187-1.062-3.437l-9.125-1.313-4.125-8.312c-.688-1.438-2.812-1.5-3.562 0zM371.125 344.437l4.063-8.312c.75-1.5 2.874-1.438 3.562 0l4.125 8.312L392 345.75c1.625.25 2.25 2.25 1.062 3.437l-6.562 6.438 1.562 9.062c.25 1.625-1.5 2.875-2.937 2.125L377 362.5l-8.188 4.312c-1.437.75-3.187-.5-2.937-2.125l1.563-9.062-6.563-6.438c-1.187-1.187-.563-3.187 1.063-3.437l9.187-1.313zm1610.215-86.156c.38-1.031.66-2.062.66-3.281 0-4.969-4.03-9-9-9-1.88 0-3.66.562-5.06 1.594-2.53-4.5-7.41-7.594-12.94-7.594-8.34 0-15 6.75-15 15v.844c-5.25 1.781-9 6.844-9 12.656 0 7.5 6 13.5 13.5 13.5h34.5c6.56 0 12-5.344 12-12 0-5.719-4.12-10.594-9.66-11.719zM2382.5 427c0 1.828-.42 3.375-.98 4.921 8.29 1.688 14.48 9 14.48 17.579 0 9.984-8.16 18-18 18h-51.75c-11.25 0-20.25-9-20.25-20.25 0-8.719 5.62-16.313 13.5-18.985V427c0-12.375 9.98-22.5 22.5-22.5 8.3 0 15.61 4.64 19.41 11.39 2.11-1.547 4.78-2.39 7.59-2.39 7.45 0 13.5 6.046 13.5 13.5zm-362.31 93.125l-4.07 8.312-9.18 1.313c-1.63.25-2.25 2.25-1.06 3.437l6.56 6.438-1.56 9.062c-.26 1.625 1.5 2.875 2.93 2.125l8.19-4.312 8.12 4.312c1.44.75 3.19-.5 2.94-2.125l-1.56-9.062 6.56-6.438c1.19-1.187.56-3.187-1.06-3.437l-9.12-1.313-4.13-8.312c-.69-1.438-2.81-1.5-3.56 0zm150.86-56.532l7.62-7.623c2.32-2.32 8.29-4.442 10.61-2.121 2.38 2.386.19 8.286-2.13 10.606l-7.62 7.624 5.24 19.158c.13.53 0 1.06-.4 1.458l-4.31 4.309c-.73.729-1.92.597-2.39-.265l-8.15-14.65-6.76 6.761.93 6.762c.06.464-.07.862-.4 1.193l-2.65 2.652c-.73.729-1.86.663-2.32-.199l-5.11-9.347-9.28-5.038c-.86-.464-.99-1.657-.26-2.387l2.65-2.651c.33-.332.79-.398 1.26-.332l6.69.862 6.77-6.762-14.59-8.087c-.86-.464-1.06-1.724-.33-2.453l4.31-4.309c.33-.331 1.06-.53 1.52-.331l19.1 5.17zm115.14 118.532l-4.07 8.312-9.18 1.313c-1.63.25-2.25 2.25-1.06 3.437l6.56 6.438-1.56 9.062c-.26 1.625 1.5 2.875 2.93 2.125l8.19-4.312 8.12 4.312c1.44.75 3.19-.5 2.94-2.125l-1.56-9.062 6.56-6.438c1.19-1.187.56-3.187-1.06-3.437l-9.12-1.313-4.13-8.312c-.69-1.438-2.81-1.5-3.56 0zm141.93-348.688l4.07-8.312c.75-1.5 2.87-1.438 3.56 0l4.13 8.312 9.12 1.313c1.62.25 2.25 2.25 1.06 3.437l-6.56 6.438 1.56 9.062c.25 1.625-1.5 2.875-2.94 2.125L2434 251.5l-8.19 4.312c-1.43.75-3.19-.5-2.93-2.125l1.56-9.062-6.56-6.438c-1.19-1.187-.57-3.187 1.06-3.437l9.18-1.313z" fill="#515F7C"/></g><defs><clipPath id="clip0"><path fill="#fff" d="M0 0h2667v814H0z"/></clipPath></defs></svg>