<svg width="2667" height="814" fill="none" xmlns="http://www.w3.org/2000/svg"><g clip-path="url(#clip0)" fill-rule="evenodd" clip-rule="evenodd"><path d="M1028.42 815.5l-143.998-224c-2.5-4.5-8-7.5-13-7.5-5.5 0-11 3-13.5 7.5L750.643 758.378 730.813 735h12.375c6.187 0 9.281-6.188 5.625-10.407l-37.969-41.062c-2.813-3.094-8.156-3.094-10.969 0l-37.969 41.062c-3.656 4.219-.562 10.407 5.625 10.407h12.657l-26.719 31.5c-4.781 5.343-.844 13.5 6.469 13.5h10.125l-25.313 29.25c-5.344 6.187-1.125 15.75 7.031 15.75h59.159c.14 2.043 1.061 5.157 1.982 7 2.5 4.5 9 8 14 8h288.498c5.5 0 11-3 14-8 1-2 2-5.5 2-7.5 0-3-1.5-6.5-3-9zM871.422 630l42.5 66h-42.5l-32 32-19.5-19 51.5-79zM2621 815.5l-144-224c-2.5-4.5-8-7.5-13-7.5-5.5 0-11 3-13.5 7.5l-144 224c-1.5 2.5-3 6-3 9 0 2 1 5.5 2 7.5 2.5 4.5 9 8 14 8H2608c5.5 0 11-3 14-8 1-2 2-5.5 2-7.5 0-3-1.5-6.5-3-9zM2464 630l42.5 66H2464l-32 32-19.5-19 51.5-79zM338.5 671.409l97 148.5c6 9-1 20.5-12 20.5H133c-9.34 0-15.651-7.573-15.161-15.409H67.781c-8.156 0-12.375-9.563-7.03-15.75L86.062 780H75.938c-7.313 0-11.25-8.157-6.469-13.5L96.188 735H83.53c-6.187 0-9.28-6.188-5.625-10.407l37.969-41.062c2.813-3.094 8.156-3.094 10.969 0l37.969 41.062c3.656 4.219.562 10.407-5.625 10.407h-12.375l15.143 17.853L224 655.909c6-9.5 21.5-9.5 27.5 0l35.5 55.5 30 46.5c1 2 3.5 2.5 5.5 1.5l6.5-4.5c2-1 2.5-3.5 1.5-5.5l-34-53 16.5-25c5.5-9 20-9 25.5 0zM1764.78 825h-52c-8.15 0-12.37-9.563-7.03-15.75l25.31-29.25h-10.12c-7.31 0-11.25-8.157-6.47-13.5l26.72-31.5h-12.66c-6.19 0-9.28-6.188-5.62-10.407l37.97-41.062c2.81-3.094 8.15-3.094 10.96 0l20.52 22.187 20.52-22.187c2.81-3.094 8.15-3.094 10.96 0l37.97 41.062c3.66 4.219.57 10.407-5.62 10.407h-12.38l26.72 31.5c4.5 5.343.56 13.5-6.75 13.5h-10.12l25.31 29.25c5.34 6.187 1.12 15.75-7.03 15.75h-107.16zm27.03-90l.69.81.69-.81h-1.38zm242.16 74.25L2008.66 780h10.12c7.31 0 11.25-8.157 6.75-13.5l-26.72-31.5h12.38c6.19 0 9.28-6.188 5.62-10.407l-37.97-41.062c-2.81-3.094-8.15-3.094-10.96 0l-37.97 41.062c-3.66 4.219-.57 10.407 5.62 10.407h12.66l-26.72 31.5c-4.78 5.343-.84 13.5 6.47 13.5h10.12l-25.31 29.25c-5.34 6.187-1.12 15.75 7.03 15.75h107.16c8.15 0 12.37-9.563 7.03-15.75zM2239.66 780l25.31 29.25c5.34 6.187 1.12 15.75-7.03 15.75h-107.16c-8.15 0-12.37-9.563-7.03-15.75l25.31-29.25h-10.12c-7.31 0-11.25-8.157-6.47-13.5l26.72-31.5h-12.66c-6.19 0-9.28-6.188-5.62-10.407l37.97-41.062c2.81-3.094 8.15-3.094 10.96 0l37.97 41.062c3.66 4.219.57 10.407-5.62 10.407h-12.38l26.72 31.5c4.5 5.343.56 13.5-6.75 13.5h-10.12zm-1654.004 0l25.313 29.25c5.344 6.187 1.125 15.75-7.031 15.75H448.781c-8.156 0-12.375-9.563-7.031-15.75L467.063 780h-10.125c-7.313 0-11.25-8.157-6.469-13.5l26.719-31.5h-12.657c-6.187 0-9.281-6.188-5.625-10.407l37.969-41.062c2.813-3.094 8.156-3.094 10.969 0l18.516 20.024 18.515-20.024c2.813-3.094 8.156-3.094 10.969 0l37.969 41.062c3.656 4.219.562 10.407-5.625 10.407h-12.375l26.718 31.5c4.5 5.343.563 13.5-6.75 13.5h-10.125z" fill="#001D40"/><path d="M2007.52 241.921c.56-1.546.98-3.093.98-4.921 0-7.454-6.05-13.5-13.5-13.5-2.81 0-5.48.843-7.59 2.39-3.8-6.75-11.11-11.39-19.41-11.39-12.52 0-22.5 10.125-22.5 22.5v1.265c-7.88 2.672-13.5 10.266-13.5 18.985 0 11.25 9 20.25 20.25 20.25H2004c9.84 0 18-8.016 18-18 0-8.579-6.19-15.891-14.48-17.579zM260.5 240c0 1.828-.422 3.375-.984 4.921 8.296 1.688 14.484 9 14.484 17.579 0 9.984-8.156 18-18 18h-51.75c-11.25 0-20.25-9-20.25-20.25 0-8.719 5.625-16.313 13.5-18.985V240c0-12.375 9.984-22.5 22.5-22.5 8.297 0 15.609 4.64 19.406 11.39 2.11-1.547 4.782-2.39 7.594-2.39 7.453 0 13.5 6.046 13.5 13.5zm459 122c0 1.828-.422 3.375-.984 4.921 8.296 1.688 14.484 9 14.484 17.579 0 9.984-8.156 18-18 18h-51.75c-11.25 0-20.25-9-20.25-20.25 0-8.719 5.625-16.313 13.5-18.985V362c0-12.375 9.984-22.5 22.5-22.5 8.297 0 15.609 4.64 19.406 11.39 2.11-1.547 4.782-2.39 7.594-2.39 7.453 0 13.5 6.046 13.5 13.5zM523.188 465.125l-4.063 8.312-9.187 1.313c-1.626.25-2.25 2.25-1.063 3.437l6.563 6.438-1.563 9.062c-.25 1.625 1.5 2.875 2.937 2.125L525 491.5l8.125 4.312c1.437.75 3.187-.5 2.937-2.125l-1.562-9.062 6.562-6.438c1.188-1.187.563-3.187-1.062-3.437l-9.125-1.313-4.125-8.312c-.688-1.438-2.812-1.5-3.562 0zM371.125 344.437l4.063-8.312c.75-1.5 2.874-1.438 3.562 0l4.125 8.312L392 345.75c1.625.25 2.25 2.25 1.062 3.437l-6.562 6.438 1.562 9.062c.25 1.625-1.5 2.875-2.937 2.125L377 362.5l-8.188 4.312c-1.437.75-3.187-.5-2.937-2.125l1.563-9.062-6.563-6.438c-1.187-1.187-.563-3.187 1.063-3.437l9.187-1.313zM2382.5 427c0 1.828-.42 3.375-.98 4.921 8.29 1.688 14.48 9 14.48 17.579 0 9.984-8.16 18-18 18h-51.75c-11.25 0-20.25-9-20.25-20.25 0-8.719 5.62-16.313 13.5-18.985V427c0-12.375 9.98-22.5 22.5-22.5 8.3 0 15.61 4.64 19.41 11.39 2.11-1.547 4.78-2.39 7.59-2.39 7.45 0 13.5 6.046 13.5 13.5zm-218.86 49.122a4.495 4.495 0 0 0 0 6.364c1.79 1.79 4.57 1.79 6.36 0a4.495 4.495 0 0 0 0-6.364c-1.72-1.723-4.64-1.723-6.36 0zm23.33-21.213c.53-.53.6-1.524 0-2.121l-3.44-3.447c-.4-.398-1.2-.531-1.73-.265l-23 10.672c-5.04 2.387-9.28 6.364-11.27 11.535-5.44 13.656 4.44 22.871 4.44 22.871s9.28 9.943 22.94 4.507c5.17-1.988 9.15-6.231 11.53-11.269l.66-1.458.47.066c1.19.132 2.78-.53 3.64-1.392l4.25-4.243c1.72-1.723 1.79-4.574.06-6.298-.53-.53-1.59-1.06-2.32-1.259l3.91-8.419c.27-.53.14-1.326-.26-1.724l-3.45-3.447c-.59-.596-1.59-.53-2.12 0l-9.54 9.546-4.31-4.309 9.54-9.546zm-28.64 35.002c-.59.597-1.52.597-2.12 0-.53-.53-.59-1.525 0-2.121.53-.531 1.59-.531 2.12 0 .6.596.53 1.591 0 2.121zm8.49 4.243a1.48 1.48 0 0 1-2.12 0c-.53-.531-.6-1.525 0-2.122.53-.53 1.59-.53 2.12 0 .6.597.53 1.591 0 2.122zm-12.73-12.728a1.48 1.48 0 0 1-2.12 0c-.53-.531-.6-1.525 0-2.122.53-.53 1.59-.53 2.12 0 .6.597.53 1.591 0 2.122zm18.03 3.182c-2.98 2.983-7.62 2.983-10.6 0-2.92-2.917-2.99-7.624 0-10.607 2.91-2.917 7.69-2.917 10.6 0 2.92 3.05 2.92 7.69 0 10.607zm110 105.829l4.07-8.312c.75-1.5 2.87-1.438 3.56 0l4.13 8.312 9.12 1.313c1.62.25 2.25 2.25 1.06 3.437l-6.56 6.438 1.56 9.062c.25 1.625-1.5 2.875-2.94 2.125L2288 608.5l-8.19 4.312c-1.43.75-3.19-.5-2.93-2.125l1.56-9.062-6.56-6.438c-1.19-1.187-.57-3.187 1.06-3.437l9.18-1.313z" fill="#515F7C"/><path d="M529.125 209.437l4.062-8.312c.75-1.5 2.875-1.438 3.563 0l4.125 8.312L550 210.75c1.625.25 2.25 2.25 1.062 3.437l-6.562 6.438 1.562 9.062c.25 1.625-1.5 2.875-2.937 2.125L535 227.5l-8.188 4.312c-1.437.75-3.187-.5-2.937-2.125l1.562-9.062-6.562-6.438c-1.188-1.187-.563-3.187 1.062-3.437l9.188-1.313zM2141 733h-56v49h56v-49zm-120.81-212.875l-4.07 8.312-9.18 1.313c-1.63.25-2.25 2.25-1.07 3.437l6.57 6.438-1.57 9.062c-.25 1.625 1.5 2.875 2.94 2.125l8.19-4.312 8.12 4.312c1.44.75 3.19-.5 2.94-2.125l-1.56-9.062 6.56-6.438c1.19-1.187.56-3.187-1.06-3.437l-9.13-1.313-4.12-8.312c-.69-1.438-2.81-1.5-3.56 0zm407.93-286.688l4.07-8.312c.75-1.5 2.87-1.438 3.56 0l4.12 8.312 9.13 1.313c1.62.25 2.25 2.25 1.06 3.437l-6.56 6.438 1.56 9.062c.25 1.625-1.5 2.875-2.94 2.125L2434 251.5l-8.19 4.312c-1.44.75-3.19-.5-2.94-2.125l1.57-9.062-6.57-6.438c-1.18-1.187-.56-3.187 1.07-3.437l9.18-1.313z" fill="#FFD43B"/><path d="M2159.13 349.437l4.06-8.312c.75-1.5 2.87-1.438 3.56 0l4.13 8.312 9.12 1.313c1.63.25 2.25 2.25 1.06 3.437l-6.56 6.438 1.56 9.062c.25 1.625-1.5 2.875-2.93 2.125L2165 367.5l-8.19 4.312c-1.43.75-3.18-.5-2.93-2.125l1.56-9.062-6.56-6.438c-1.19-1.187-.57-3.187 1.06-3.437l9.19-1.313zM209.187 501.125l-4.062 8.312-9.188 1.313c-1.625.25-2.25 2.25-1.062 3.437l6.562 6.438-1.562 9.062c-.25 1.625 1.5 2.875 2.937 2.125L211 527.5l8.125 4.312c1.437.75 3.187-.5 2.937-2.125l-1.562-9.062 6.562-6.438c1.188-1.187.563-3.187-1.062-3.437l-9.125-1.313-4.125-8.312c-.688-1.438-2.813-1.5-3.563 0zM2183.5 753.25l-14.5-13V706c0-2-2-4-4-4h-16c-2.25 0-4 2-4 4v13l-25.5-22.25c-1.5-1.5-4.5-2.75-6.5-2.75-2.25 0-5.25 1.25-6.75 2.75l-64 56.5c-.75.5-1.5 2-1.5 3 0 .75.5 2 1.25 2.5l5.25 6c.75.75 2 1.25 3 1.25.75 0 2-.5 2.75-1l4-3.5V814c0 4.5 3.5 8 8 8h96c4.25 0 8-3.5 8-8v-52.5l3.75 3.5c.75.5 2 1 2.75 1 1 0 2.25-.5 3-1.25l5.25-6c.5-.5 1-1.75 1.25-2.5-.25-1-.75-2.5-1.5-3zm-54.5 15.5c-.25 3-2.5 5.25-5.5 5.25h-21.25c-3 0-5.25-2.25-5.25-5.25V747.5c0-3 2.25-5.25 5.25-5.5h21.25c3 .25 5.25 2.5 5.5 5.5v21.25zM563 810.125c-.5 2.125.875 4.25 3 4.875h1a3.981 3.981 0 0 0 3.875-3L574 799.375l-6.625-6.5-4.375 17.25zm1.875-24.5l5.25-20c.25-1-.5-2-1.5-2.375-5.5-1.25-11.125 2-12.5 7.25L553 782.75c-.25 1 .375 2.125 1.5 2.375l7.875 1.875c1.125.25 2.25-.375 2.5-1.375zM599 771h-2c-1.125 0-2 1-2 2v2h-4.375l-5.875-5.75c-1.375-1.375-3.25-2.25-5.25-2.25-3.375 0-6.25 2.375-7.125 5.625l-3.375 13.5V787c0 1 .5 2.25 1.125 2.875L581 800.75V811c0 2.25 1.75 4 4 4 2.125 0 4-1.75 4-4v-10.25c0-2.125-.875-4.125-2.375-5.75l-5.875-5.75v-.037l.001-.022.001-.017.004-.023a.056.056 0 0 1 .004-.012c.013-.037.043-.068.115-.139l2.375-9.875 2.875 2.75c.75.75 1.75 1.25 2.75 1.25h6v30c0 1 1 2 2 2h2c1.125 0 2-1 2-2V773c.125-1-.875-2-1.875-2zm-16-8c3.25 0 6-2.625 6-6 0-3.25-2.75-6-6-6-3.375 0-6 2.75-6 6 0 3.375 2.625 6 6 6zm49.25 29.062h13.613l12.012 4.324v17.457c0 .721-.641 1.282-1.281 1.282h-5.125a1.265 1.265 0 0 1-1.281-1.282v-8.968h-12.813v8.968c0 .721-.641 1.282-1.281 1.282h-5.125a1.265 1.265 0 0 1-1.281-1.282v-17.056c-3.043-1.121-5.125-3.924-5.125-7.287 0-1.362 1.121-2.563 2.562-2.563 1.361 0 2.563 1.201 2.563 2.563a2.53 2.53 0 0 0 2.562 2.562zm32.031-10.25c.641 0 1.282.641 1.282 1.281v2.563a5.11 5.11 0 0 1-5.125 5.125h-2.563v2.883l-10.25-3.684v-12.012c0-1.121 1.361-1.681 2.162-.881l2.162 2.163h4.324c.881 0 1.842.64 2.243 1.441l.64 1.121h5.125zm-8.968 2.563c.64 0 1.281-.561 1.281-1.282 0-.64-.641-1.281-1.281-1.281-.721 0-1.282.641-1.282 1.281 0 .721.561 1.282 1.282 1.282zM213.938 803H211c-3.937 0-7.5 1.437-10 3.625v-6c.5.25 1.375.437 2 .437 2.75 0 5-2.25 5-5 0-1.437-.937-3.187-2.062-4.062 1.125-.813 2-2.563 2-4a4.91 4.91 0 0 0-4.938-4.938c-1.437 0-3.187.875-4 2-.875-1.125-2.625-2-4.062-2A4.91 4.91 0 0 0 190 788c0 1.437.875 3.187 2 4-1.125.875-2 2.625-2 4.062 0 2.75 2.188 5 4.938 5 .625 0 1.5-.25 2.062-.437v6c-2.562-2.188-6.125-3.625-10.062-3.625H184c-.625 0-1.062.5-1 1.062.625 6.125 6.625 10.938 13.938 10.938H201c7.313 0 13.313-4.813 13.938-10.938.062-.562-.375-1.062-1-1.062zM199 795c-1.687 0-3-1.313-3-3 0-1.625 1.313-3 3-3 1.625 0 3 1.375 3 3 0 1.687-1.375 3-3 3zm1725 8h2.94c.62 0 1.06.5 1 1.062-.63 6.125-6.63 10.938-13.94 10.938h-4.06c-7.31 0-13.31-4.813-13.94-10.938-.06-.562.38-1.062 1-1.062h2.94c3.94 0 7.5 1.437 10.06 3.625v-6c-.56.187-1.44.437-2.06.437-2.75 0-4.94-2.25-4.94-5 0-1.437.88-3.187 2-4.062-1.12-.813-2-2.563-2-4a4.91 4.91 0 0 1 4.94-4.938c1.44 0 3.19.875 4.06 2 .81-1.125 2.56-2 4-2a4.91 4.91 0 0 1 4.94 4.938c0 1.437-.88 3.187-2 4 1.12.875 2.06 2.625 2.06 4.062 0 2.75-2.25 5-5 5-.62 0-1.5-.187-2-.437v6c2.5-2.188 6.06-3.625 10-3.625zm-15-11c0 1.687 1.31 3 3 3 1.63 0 3-1.313 3-3 0-1.625-1.37-3-3-3a3 3 0 0 0-3 3zM269.937 803H267c-3.938 0-7.5 1.437-10 3.625v-6c.5.25 1.375.437 2 .437 2.75 0 5-2.25 5-5 0-1.437-.938-3.187-2.063-4.062 1.125-.813 2-2.563 2-4a4.908 4.908 0 0 0-4.937-4.938c-1.438 0-3.188.875-4 2-.875-1.125-2.625-2-4.063-2A4.908 4.908 0 0 0 246 788c0 1.437.875 3.187 2 4-1.125.875-2 2.625-2 4.062 0 2.75 2.187 5 4.937 5 .625 0 1.5-.25 2.063-.437v6c-2.563-2.188-6.125-3.625-10.063-3.625H240c-.625 0-1.063.5-1 1.062.625 6.125 6.625 10.938 13.937 10.938H257c7.312 0 13.312-4.813 13.937-10.938.063-.562-.375-1.062-1-1.062zM255 795c-1.688 0-3-1.313-3-3a3 3 0 0 1 3-3c1.625 0 3 1.375 3 3 0 1.687-1.375 3-3 3zm1725 8h2.94c.62 0 1.06.5 1 1.062-.63 6.125-6.63 10.938-13.94 10.938h-4.06c-7.31 0-13.31-4.813-13.94-10.938-.06-.562.38-1.062 1-1.062h2.94c3.94 0 7.5 1.437 10.06 3.625v-6c-.56.187-1.44.437-2.06.437-2.75 0-4.94-2.25-4.94-5 0-1.437.88-3.187 2-4.062-1.12-.813-2-2.563-2-4a4.91 4.91 0 0 1 4.94-4.938c1.44 0 3.19.875 4.06 2 .81-1.125 2.56-2 4-2a4.91 4.91 0 0 1 4.94 4.938c0 1.437-.88 3.187-2 4 1.12.875 2.06 2.625 2.06 4.062 0 2.75-2.25 5-5 5-.62 0-1.5-.187-2-.437v6c2.5-2.188 6.06-3.625 10-3.625zm-15-11c0 1.687 1.31 3 3 3 1.63 0 3-1.313 3-3 0-1.625-1.37-3-3-3a3 3 0 0 0-3 3zM157.938 802.937H155c-3.937 0-7.5 1.438-10 3.625v-6c.5.25 1.375.438 2 .438 2.75 0 5-2.25 5-5 0-1.438-.937-3.188-2.062-4.063 1.125-.812 2-2.562 2-4A4.908 4.908 0 0 0 147 783c-1.437 0-3.187.875-4 2-.875-1.125-2.625-2-4.062-2a4.908 4.908 0 0 0-4.938 4.937c0 1.438.875 3.188 2 4-1.125.875-2 2.625-2 4.063 0 2.75 2.188 5 4.938 5 .625 0 1.5-.25 2.062-.438v6c-2.562-2.187-6.125-3.625-10.062-3.625H128c-.625 0-1.062.5-1 1.063.625 6.125 6.625 10.937 13.938 10.937H145c7.313 0 13.313-4.812 13.938-10.937.062-.563-.375-1.063-1-1.063zm-14.938-8c-1.687 0-3-1.312-3-3 0-1.625 1.313-3 3-3 1.625 0 3 1.375 3 3a3 3 0 0 1-3 3zM1868 803h2.94c.62 0 1.06.5 1 1.062-.63 6.125-6.63 10.938-13.94 10.938h-4.06c-7.31 0-13.31-4.813-13.94-10.938-.06-.562.38-1.062 1-1.062h2.94c3.94 0 7.5 1.437 10.06 3.625v-6c-.56.187-1.44.437-2.06.437-2.75 0-4.94-2.25-4.94-5 0-1.437.88-3.187 2-4.062-1.12-.813-2-2.563-2-4a4.91 4.91 0 0 1 4.94-4.938c1.44 0 3.19.875 4.06 2 .81-1.125 2.56-2 4-2a4.91 4.91 0 0 1 4.94 4.938c0 1.437-.88 3.187-2 4 1.12.875 2.06 2.625 2.06 4.062 0 2.75-2.25 5-5 5-.62 0-1.5-.187-2-.437v6c2.5-2.188 6.06-3.625 10-3.625zm-15-11c0 1.687 1.31 3 3 3 1.63 0 3-1.313 3-3 0-1.625-1.37-3-3-3a3 3 0 0 0-3 3zM814.75 813l-22.5-26h9c6.5 0 10-7.25 6-12l-23.75-28h11c5.5 0 8.25-5.5 5-9.25l-33.75-36.5c-2.5-2.75-7.25-2.75-9.75 0l-33.75 36.5c-3.25 3.75-.5 9.25 5 9.25h11.25l-23.75 28c-4.25 4.75-.75 12 5.75 12h9L707 813c-4.75 5.5-1 14 6.25 14h95.25c7.25 0 11-8.5 6.25-14zm1533.5-26l22.5 26c4.75 5.5 1 14-6.25 14h-95.25c-7.25 0-11-8.5-6.25-14l22.5-26h-9c-6.5 0-10-7.25-5.75-12l23.75-28h-11.25c-5.5 0-8.25-5.5-5-9.25l33.75-36.5c2.5-2.75 7.25-2.75 9.75 0l33.75 36.5c3.25 3.75.5 9.25-5 9.25h-11l23.75 28c4 4.75.5 12-6 12h-9zM457 757.75c-2.75-4-6.25-6.75-10.75-8.75h.25c2-4 2.75-8 2.25-12.25s-2.25-8-5-11c-3-3-6.5-5.25-10.5-6.25S425 719 421 720.75c-.75-6-3.5-11.25-8-15.5-4.5-4-10-6.25-16-6.25-6.25 0-11.75 2.25-16.25 6.25-4.5 4.25-7.25 9.5-7.75 15.5-4.25-1.75-8.5-2.25-12.5-1.25s-7.5 3.25-10.25 6.25c-3 3-4.75 6.75-5.25 11s.25 8.25 2.75 12.25c-4.5 2-8.25 4.75-10.75 8.75-2.75 4-4 8.5-4 13.25 0 6.75 2.25 12.5 7 17 4.5 4.75 10.25 7 17 7h32v14.25l-7.75 12c-1.25 2.75.75 6 3.75 6h23.75c3 0 5-3.25 3.75-6l-7.5-12V795h32c6.5 0 12.25-2.25 17-7 4.5-4.5 7-10.25 7-17 0-4.75-1.5-9.25-4-13.25zM1812 803h2.94c.62 0 1.06.5 1 1.062-.63 6.125-6.63 10.938-13.94 10.938h-4.06c-7.31 0-13.31-4.813-13.94-10.938-.06-.562.38-1.062 1-1.062h2.94c3.94 0 7.5 1.437 10.06 3.625v-6c-.56.187-1.44.437-2.06.437-2.75 0-4.94-2.25-4.94-5 0-1.437.88-3.187 2-4.062-1.12-.813-2-2.563-2-4a4.91 4.91 0 0 1 4.94-4.938c1.44 0 3.19.875 4.06 2 .81-1.125 2.56-2 4-2a4.91 4.91 0 0 1 4.94 4.938c0 1.437-.88 3.187-2 4 1.12.875 2.06 2.625 2.06 4.062 0 2.75-2.25 5-5 5-.62 0-1.5-.187-2-.437v6c2.5-2.188 6.06-3.625 10-3.625zm-15-11c0 1.687 1.31 3 3 3 1.63 0 3-1.313 3-3 0-1.625-1.37-3-3-3a3 3 0 0 0-3 3zm758.19-359.875l-4.07 8.312-9.18 1.313c-1.63.25-2.25 2.25-1.07 3.437l6.57 6.438-1.57 9.062c-.25 1.625 1.5 2.875 2.94 2.125l8.19-4.312 8.12 4.312c1.44.75 3.19-.5 2.94-2.125l-1.56-9.062 6.56-6.438c1.19-1.187.56-3.187-1.06-3.437l-9.13-1.313-4.12-8.312c-.69-1.438-2.81-1.5-3.56 0zM99 803h2.938c.625 0 1.062.5 1 1.062C102.313 810.187 96.312 815 89 815h-4.063c-7.312 0-13.312-4.813-13.937-10.938-.063-.562.375-1.062 1-1.062h2.938c3.937 0 7.5 1.437 10.062 3.625v-6c-.563.187-1.438.437-2.063.437-2.75 0-4.937-2.25-4.937-5 0-1.437.875-3.187 2-4.062-1.125-.813-2-2.563-2-4a4.909 4.909 0 0 1 4.938-4.938c1.437 0 3.187.875 4.062 2 .813-1.125 2.563-2 4-2A4.909 4.909 0 0 1 95.938 788c0 1.437-.876 3.187-2 4 1.124.875 2.062 2.625 2.062 4.062 0 2.75-2.25 5-5 5-.625 0-1.5-.187-2-.437v6c2.5-2.188 6.063-3.625 10-3.625zm-15-11c0 1.687 1.313 3 3 3 1.625 0 3-1.313 3-3 0-1.625-1.375-3-3-3a3 3 0 0 0-3 3z" fill="#F8F9FA"/></g><defs><clipPath id="clip0"><path fill="#fff" d="M0 0h2667v814H0z"/></clipPath></defs></svg>