<svg width="2667" height="815" fill="none" xmlns="http://www.w3.org/2000/svg"><g clip-path="url(#clip0)"><path d="M432.5 801c14 21-1.5 49-27 49H146c-22 0-36-24.5-24-43l111.5-175c5.5-8 19-8 24.5 0l64.5 101.5 20-31.5c6.5-9.5 21-9.5 27 0l63 99z" fill="#193154"/><path fill-rule="evenodd" clip-rule="evenodd" d="M2418 633.59l111.5 175c5.5 8.5 5.5 19.5.5 28.5s-14 14.5-24.5 14.5H2306c-10.5 0-19.5-5.5-24.5-14.5s-5-20 .5-28.5l111.5-175c5.5-8 19-8 24.5 0zm23.5 90l-35.5-56-39.5 62 15.5 26 24-32h35.5z" fill="#193154"/><path d="M1871.94 824.59c8.15 0 12.37-9.562 7.03-15.75l-25.31-29.25h10.12c7.31 0 11.25-8.156 6.75-13.5l-26.72-31.5h12.38c6.18 0 9.28-6.187 5.62-10.406l-37.97-41.062c-2.81-3.094-8.15-3.094-10.97 0l-37.96 41.062c-3.66 4.219-.57 10.406 5.62 10.406h12.66l-26.72 31.5c-4.78 5.344-.85 13.5 6.47 13.5h10.12l-25.31 29.25c-5.34 6.188-1.13 15.75 7.03 15.75h107.16zM765.969 808.84c5.343 6.188 1.125 15.75-7.032 15.75H651.781c-8.156 0-12.375-9.562-7.031-15.75l25.312-29.25h-10.125c-7.312 0-11.25-8.156-6.469-13.5l26.719-31.5h-12.656c-6.188 0-9.281-6.187-5.625-10.406l37.969-41.062c2.812-3.094 8.156-3.094 10.969 0l37.968 41.062c3.657 4.219.563 10.406-5.625 10.406h-12.375l26.719 31.5c4.5 5.344.563 13.5-6.75 13.5h-10.125l25.313 29.25z" fill="#193154"/><path d="M1331 699h33v33h-33v-33z" fill="#FAB005"/><path d="M1870.19 158.125c.75-1.5 2.87-1.437 3.56 0l4.13 8.313 9.12 1.312c1.63.25 2.31 2.25 1.13 3.438l-6.63 6.437 1.56 9.063c.25 1.625-1.43 2.875-2.93 2.125L1872 184.5l-8.19 4.313c-1.5.75-3.18-.5-2.93-2.125l1.56-9.063-6.63-6.437c-1.18-1.188-.5-3.188 1.13-3.438l9.12-1.312 4.13-8.313zM2455.75 209.125c-.69-1.437-2.81-1.5-3.56 0l-4.13 8.313-9.12 1.312c-1.63.25-2.31 2.25-1.13 3.438l6.63 6.437-1.56 9.063c-.25 1.625 1.43 2.875 2.93 2.125l8.19-4.313 8.13 4.313c1.5.75 3.18-.5 2.93-2.125l-1.56-9.063 6.63-6.437c1.18-1.188.5-3.188-1.13-3.438l-9.12-1.312-4.13-8.313zM1990.19 392.125c.75-1.5 2.87-1.437 3.56 0l4.13 8.313 9.12 1.312c1.63.25 2.31 2.25 1.13 3.438l-6.63 6.437 1.56 9.063c.25 1.625-1.43 2.875-2.93 2.125L1992 418.5l-8.19 4.313c-1.5.75-3.18-.5-2.93-2.125l1.56-9.063-6.63-6.437c-1.18-1.188-.5-3.188 1.13-3.438l9.12-1.312 4.13-8.313zM797.75 483.125c-.687-1.437-2.812-1.5-3.562 0l-4.125 8.313-9.125 1.312c-1.625.25-2.313 2.25-1.125 3.438l6.625 6.437-1.563 9.063c-.25 1.625 1.438 2.875 2.938 2.125L796 509.5l8.125 4.313c1.5.75 3.188-.5 2.938-2.125l-1.563-9.063 6.625-6.437c1.188-1.188.5-3.188-1.125-3.438l-9.125-1.312-4.125-8.313zM1121 677h80v94h-80v-94zM1028 682h28v57h-28v-57zM1550 732.59h-56v49h56v-49zM448.188 587.125c.75-1.5 2.875-1.437 3.562 0l4.125 8.313L465 596.75c1.625.25 2.313 2.25 1.125 3.438l-6.625 6.437 1.563 9.063c.25 1.625-1.438 2.875-2.938 2.125L450 613.5l-8.187 4.313c-1.5.75-3.188-.5-2.938-2.125l1.563-9.063-6.625-6.437c-1.188-1.188-.5-3.188 1.125-3.438l9.125-1.312 4.125-8.313zM1854.75 558.125c-.69-1.437-2.81-1.5-3.56 0l-4.13 8.313-9.12 1.312c-1.63.25-2.31 2.25-1.13 3.438l6.63 6.437-1.56 9.063c-.25 1.625 1.43 2.875 2.93 2.125l8.19-4.313 8.13 4.313c1.5.75 3.18-.5 2.93-2.125l-1.56-9.063 6.63-6.437c1.18-1.188.5-3.188-1.13-3.438l-9.12-1.312-4.13-8.313zM444.75 209.125c-.687-1.437-2.812-1.5-3.562 0l-4.125 8.313-9.125 1.312c-1.625.25-2.313 2.25-1.125 3.438l6.625 6.437-1.563 9.063c-.25 1.625 1.438 2.875 2.938 2.125L443 235.5l8.125 4.313c1.5.75 3.188-.5 2.938-2.125l-1.563-9.063 6.625-6.437c1.188-1.188.5-3.188-1.125-3.438l-9.125-1.312-4.125-8.313z" fill="#FFD43B"/><path fill-rule="evenodd" clip-rule="evenodd" d="M1315 716c0-14.25 14.25-26 32-26 17.63 0 32 11.75 32 26 0 14.375-14.37 26-32 26-4.87 0-9.37-.875-13.5-2.375-3 2.5-9.25 6.375-17.5 6.375-.5 0-.75-.125-1-.5-.12-.375 0-.875.25-1.125 0-.018.11-.147.3-.373 1.13-1.35 5.18-6.168 6.58-11.627-4.5-4.5-7.13-10.125-7.13-16.375zm43.88-8c0-2.125-1.75-4-4-4-2.13 0-4 1.875-4 4 0 2.25 1.87 4 4 4 2.25 0 4-1.75 4-4zm-16 0c0-2.125-1.75-4-4-4-2.13 0-4 1.875-4 4 0 2.25 1.87 4 4 4 2.25 0 4-1.75 4-4zm4 22c5.25 0 10-2.125 13.37-6 1-1.25.88-3.125-.37-4.25s-3.13-.875-4.25.375c-2.13 2.5-5.25 3.875-8.75 3.875-3.38 0-6.5-1.375-8.63-3.875-1.12-1.25-3-1.5-4.25-.375s-1.37 3-.37 4.25c3.37 3.875 8.12 6 13.25 6z" fill="#FFD43B"/><path fill-rule="evenodd" clip-rule="evenodd" d="M925 746.316L857 639.59c-5.5-8-19-8-24.5 0l-111.5 175c-5.5 8.5-5.5 19.5-.5 28.5s14 14.5 24.5 14.5h199.5c10.5 0 19.5-5.5 24.5-14.5 4.065-7.317 4.826-15.957 2.012-23.5H1105.5c1.02 0 2.01-.168 2.94-.48.96.312 1.98.48 3.06.48h33.25v-23.75c0-7.718 6.23-14.25 14.25-14.25 7.72 0 14.25 6.532 14.25 14.25v23.75h33.25c5.05 0 9.5-4.156 9.5-9.5V681.84c0-7.718-6.53-14.25-14.25-14.25h-85.5c-8.02 0-14.25 6.532-14.25 14.25v42.808c-.41-.038-.83-.058-1.25-.058h-33.25v-42.75c0-7.718-6.53-14.25-14.25-14.25h-28.5c-8.02 0-14.25 6.532-14.25 14.25v14.25h-19v-21.375c0-3.859-3.266-7.125-7.125-7.125-4.156 0-7.125 3.266-7.125 7.125v21.375h-19v-21.375c0-3.859-3.266-7.125-7.125-7.125-4.156 0-7.125 3.266-7.125 7.125v21.375h-4.75c-8.016 0-14.25 6.532-14.25 14.25v35.976zm-44.5-16.726l-35.5-56-39.5 62 15.5 26 24-32h35.5zm269 28.25c0 2.672-2.38 4.75-4.75 4.75h-9.5c-2.67 0-4.75-2.078-4.75-4.75v-9.5c0-2.375 2.08-4.75 4.75-4.75h9.5c2.37 0 4.75 2.375 4.75 4.75v9.5zm0-28.5c0 2.672-2.38 4.75-4.75 4.75h-9.5c-2.67 0-4.75-2.078-4.75-4.75v-9.5c0-2.375 2.08-4.75 4.75-4.75h9.5c2.37 0 4.75 2.375 4.75 4.75v9.5zm0-28.5c0 2.672-2.38 4.75-4.75 4.75h-9.5c-2.67 0-4.75-2.078-4.75-4.75v-9.5c0-2.375 2.08-4.75 4.75-4.75h9.5c2.37 0 4.75 2.375 4.75 4.75v9.5zm38 57c0 2.672-2.38 4.75-4.75 4.75h-9.5c-2.67 0-4.75-2.078-4.75-4.75v-9.5c0-2.375 2.08-4.75 4.75-4.75h9.5c2.37 0 4.75 2.375 4.75 4.75v9.5zm0-28.5c0 2.672-2.38 4.75-4.75 4.75h-9.5c-2.67 0-4.75-2.078-4.75-4.75v-9.5c0-2.375 2.08-4.75 4.75-4.75h9.5c2.37 0 4.75 2.375 4.75 4.75v9.5zm0-28.5c0 2.672-2.38 4.75-4.75 4.75h-9.5c-2.67 0-4.75-2.078-4.75-4.75v-9.5c0-2.375 2.08-4.75 4.75-4.75h9.5c2.37 0 4.75 2.375 4.75 4.75v9.5zM1046.86 705c.95-.619 1.64-1.681 1.64-2.972v-11.875c0-1.781-1.78-3.563-3.56-3.563h-11.88c-2.08 0-3.56 1.782-3.56 3.563v11.875c0 1.291.57 2.353 1.51 2.972h15.85z" fill="#3C4E68"/><path d="M1826.97 808.84c5.34 6.188 1.12 15.75-7.03 15.75h-107.16c-8.16 0-12.37-9.562-7.03-15.75l25.31-29.25h-10.12c-7.32 0-11.25-8.156-6.47-13.5l26.72-31.5h-12.66c-6.19 0-9.28-6.187-5.62-10.406l37.96-41.062c2.82-3.094 8.16-3.094 10.97 0l37.97 41.062c3.66 4.219.56 10.406-5.62 10.406h-12.38l26.72 31.5c4.5 5.344.56 13.5-6.75 13.5h-10.12l25.31 29.25zM2234.44 824.59c8.15 0 12.37-9.562 7.03-15.75l-25.31-29.25h10.12c7.31 0 11.25-8.156 6.75-13.5l-26.72-31.5h12.38c6.18 0 9.28-6.187 5.62-10.406l-37.97-41.062c-2.81-3.094-8.15-3.094-10.97 0l-37.96 41.062c-3.66 4.219-.57 10.406 5.62 10.406h12.66l-26.72 31.5c-4.78 5.344-.85 13.5 6.47 13.5h10.12l-25.31 29.25c-5.34 6.188-1.13 15.75 7.03 15.75h107.16zM610.969 808.84c5.343 6.188 1.125 15.75-7.032 15.75H448.781c-8.156 0-12.375-9.562-7.031-15.75l25.312-29.25h-10.125c-7.312 0-11.25-8.156-6.469-13.5l26.719-31.5h-12.656c-6.188 0-9.281-6.187-5.625-10.406l37.969-41.062c2.812-3.094 8.156-3.094 10.968 0l18.516 20.024 18.516-20.024c2.812-3.094 8.156-3.094 10.968 0l37.969 41.062c3.657 4.219.563 10.406-5.625 10.406h-12.375l26.719 31.5c4.5 5.344.563 13.5-6.75 13.5h-10.125l25.313 29.25zM172.969 808.84c5.344 6.188 1.125 15.75-7.031 15.75H58.782c-8.157 0-12.375-9.562-7.032-15.75l25.313-29.25H66.938c-7.313 0-11.25-8.156-6.469-13.5l26.719-31.5H74.53c-6.187 0-9.28-6.187-5.625-10.406l37.969-41.062c2.813-3.094 8.156-3.094 10.969 0l37.969 41.062c3.656 4.219.562 10.406-5.625 10.406h-12.375l26.718 31.5c4.5 5.344.563 13.5-6.75 13.5h-10.125l25.313 29.25z" fill="#3C4E68"/><path fill-rule="evenodd" clip-rule="evenodd" d="M1591.25 751.59l-13.5-11.5v-34.5c0-2-1.75-4-4-4h-16c-2 0-4 2-4 4v13.5l-26.5-23.5c-1.75-1.25-3.5-2-5.5-1.75-1.75 0-3.75.5-5.25 1.75l-64 56c-1.75 1.75-2.5 3.75-2.5 6 0 4.5 3.5 8 8 8h8v40c0 9 7 16 16 16h79.75c9 0 16-7 16-16v-40h8c4.5 0 8-3.5 8-8 0-2.25-.75-4.25-2.5-6zM1538 768.34c0 3-2.5 5.25-5.5 5.25h-21.25c-3 0-5.25-2.25-5.25-5.25v-21.25c0-3 2.25-5.5 5.25-5.5h21.25c3 0 5.5 2.5 5.5 5.5v21.25z" fill="#3C4E68"/><path d="M2007.52 241.922c.56-1.547.98-3.094.98-4.922 0-7.453-6.05-13.5-13.5-13.5-2.81 0-5.48.844-7.59 2.391-3.8-6.75-11.11-11.391-19.41-11.391-12.52 0-22.5 10.125-22.5 22.5v1.266c-7.88 2.672-13.5 10.265-13.5 18.984 0 11.25 9 20.25 20.25 20.25H2004c9.84 0 18-8.016 18-18 0-8.578-6.19-15.891-14.48-17.578zM260.5 240c0 1.828-.422 3.375-.984 4.922 8.296 1.687 14.484 9 14.484 17.578 0 9.984-8.156 18-18 18h-51.75c-11.25 0-20.25-9-20.25-20.25 0-8.719 5.625-16.312 13.5-18.984V240c0-12.375 9.984-22.5 22.5-22.5 8.297 0 15.609 4.641 19.406 11.391 2.11-1.547 4.782-2.391 7.594-2.391 7.453 0 13.5 6.047 13.5 13.5zM719.5 362c0 1.828-.422 3.375-.984 4.922 8.296 1.687 14.484 9 14.484 17.578 0 9.984-8.156 18-18 18h-51.75c-11.25 0-20.25-9-20.25-20.25 0-8.719 5.625-16.312 13.5-18.984V362c0-12.375 9.984-22.5 22.5-22.5 8.297 0 15.609 4.641 19.406 11.391 2.11-1.547 4.782-2.391 7.594-2.391 7.453 0 13.5 6.047 13.5 13.5zM2382.5 427c0 1.828-.42 3.375-.98 4.922 8.29 1.687 14.48 9 14.48 17.578 0 9.984-8.16 18-18 18h-51.75c-11.25 0-20.25-9-20.25-20.25 0-8.719 5.62-16.312 13.5-18.984V427c0-12.375 9.98-22.5 22.5-22.5 8.3 0 15.61 4.641 19.41 11.391 2.11-1.547 4.78-2.391 7.59-2.391 7.45 0 13.5 6.047 13.5 13.5zM2034.25 537.438c-.19-.813-1-1.313-1.81-1.063l-4.88 1.313L2023 535l4.56-2.625 4.88 1.313c.81.25 1.62-.25 1.81-1.063.25-.813-.25-1.625-1.06-1.813l-1.94-.562 2.06-1.188c.69-.374.94-1.312.5-2.062-.37-.688-1.31-.938-2-.5l-2.06 1.188.5-2c.13-.376.06-.813-.12-1.126-.19-.312-.5-.562-.94-.687a1.42 1.42 0 0 0-1.81 1.063l-1.32 4.874-4.56 2.626v-5.313l3.56-3.563c.57-.562.57-1.5 0-2.062-.62-.625-1.56-.625-2.12 0l-1.44 1.438V520.5c0-.812-.69-1.5-1.5-1.5-.87 0-1.5.688-1.5 1.5v2.438l-1.44-1.438c-.62-.625-1.56-.625-2.12 0-.63.562-.63 1.5 0 2.062l3.56 3.563v5.313l-4.56-2.626-1.31-4.874c-.25-.813-1.07-1.313-1.88-1.063-.81.187-1.25 1-1.06 1.813l.56 2-2.06-1.188a1.5 1.5 0 0 0-2.06.5c-.44.75-.19 1.688.56 2.062l2.06 1.188-2 .562c-.81.188-1.25 1-1.06 1.813.25.813 1.06 1.313 1.87 1.063l4.88-1.313L2017 535l-4.56 2.688-4.88-1.313c-.81-.25-1.62.25-1.87 1.063-.19.812.25 1.624 1.06 1.812l2 .562-2.06 1.188a1.4 1.4 0 0 0-.56 2c.43.75 1.31 1 2.06.562l2.06-1.187-.56 2c-.19.813.25 1.625 1.06 1.813.81.25 1.63-.25 1.88-1.063l1.31-4.875 4.56-2.625v5.313l-3.56 3.562c-.63.562-.63 1.5 0 2.062.56.626 1.5.626 2.12 0l1.44-1.437v2.375c0 .875.63 1.5 1.5 1.5.81 0 1.5-.625 1.5-1.5v-2.375l1.44 1.437c.25.313.69.438 1.06.438.38 0 .75-.125 1.06-.438.57-.562.57-1.5 0-2.062l-3.56-3.562v-5.313l4.56 2.625 1.32 4.875c.18.813 1 1.313 1.81 1.063.81-.188 1.31-1 1.06-1.813l-.5-2 2.06 1.187a1.4 1.4 0 0 0 2-.562c.44-.688.19-1.625-.5-2l-2.06-1.188 1.94-.562c.44-.062.75-.375.94-.688.18-.312.25-.75.12-1.124zM613.438 528.375c.812-.25 1.625.25 1.812 1.063a1.4 1.4 0 0 1-.125 1.124c-.187.313-.5.626-.937.688l-1.938.562 2.063 1.188c.687.375.937 1.312.5 2-.375.75-1.313 1-2 .562l-2.063-1.187.5 2c.25.813-.25 1.625-1.062 1.813-.813.25-1.625-.25-1.813-1.063l-1.312-4.875-4.563-2.625v5.313l3.563 3.562c.562.562.562 1.5 0 2.062A1.464 1.464 0 0 1 605 541c-.375 0-.812-.125-1.062-.438l-1.438-1.437v2.375c0 .875-.687 1.5-1.5 1.5-.875 0-1.5-.625-1.5-1.5v-2.375l-1.437 1.437c-.625.626-1.563.626-2.125 0a1.368 1.368 0 0 1 0-2.062l3.562-3.562v-5.313l-4.562 2.625-1.313 4.875c-.25.813-1.062 1.313-1.875 1.063-.812-.188-1.25-1-1.062-1.813l.562-2-2.062 1.187c-.75.438-1.625.188-2.063-.562a1.402 1.402 0 0 1 .563-2l2.062-1.188-2-.562c-.812-.188-1.25-1-1.062-1.812.25-.813 1.062-1.313 1.875-1.063l4.875 1.313L598 527l-4.562-2.625-4.875 1.313c-.813.25-1.625-.25-1.875-1.063-.188-.813.25-1.625 1.062-1.813l2-.562-2.062-1.188c-.75-.374-1-1.312-.563-2.062.438-.688 1.313-.938 2.063-.5l2.062 1.188-.562-2c-.188-.813.25-1.626 1.062-1.813.813-.25 1.625.25 1.875 1.063l1.313 4.874 4.562 2.626v-5.313l-3.562-3.563a1.368 1.368 0 0 1 0-2.062c.562-.625 1.5-.625 2.125 0l1.437 1.438V512.5c0-.812.625-1.5 1.5-1.5.813 0 1.5.688 1.5 1.5v2.438l1.438-1.438c.562-.625 1.5-.625 2.125 0 .562.562.562 1.5 0 2.062l-3.563 3.563v5.313l4.563-2.626 1.312-4.874c.188-.813 1-1.313 1.813-1.063.437.125.75.375.937.687.188.313.25.75.125 1.126l-.5 2 2.063-1.188c.687-.438 1.625-.188 2 .5.437.75.187 1.688-.5 2.062l-2.063 1.188 1.938.562c.812.188 1.312 1 1.062 1.813-.187.813-1 1.313-1.812 1.063l-4.875-1.313L604 527l4.563 2.688 4.875-1.313zM2335.25 267.438c-.19-.813-1-1.313-1.81-1.063l-4.88 1.313L2324 265l4.56-2.625 4.88 1.313c.81.25 1.62-.25 1.81-1.063.25-.813-.25-1.625-1.06-1.813l-1.94-.562 2.06-1.188c.69-.374.94-1.312.5-2.062-.37-.688-1.31-.938-2-.5l-2.06 1.188.5-2c.13-.376.06-.813-.13-1.126-.18-.312-.5-.562-.93-.687a1.42 1.42 0 0 0-1.81 1.063l-1.32 4.874-4.56 2.626v-5.313l3.56-3.563c.56-.562.56-1.5 0-2.062-.62-.625-1.56-.625-2.12 0l-1.44 1.438V250.5c0-.812-.69-1.5-1.5-1.5-.88 0-1.5.688-1.5 1.5v2.438l-1.44-1.438c-.62-.625-1.56-.625-2.12 0-.63.562-.63 1.5 0 2.062l3.56 3.563v5.313l-4.56-2.626-1.32-4.874c-.24-.813-1.06-1.313-1.87-1.063-.81.187-1.25 1-1.06 1.813l.56 2-2.06-1.188a1.514 1.514 0 0 0-2.07.5c-.43.75-.18 1.688.57 2.062l2.06 1.188-2 .562c-.81.188-1.25 1-1.06 1.813.25.813 1.06 1.313 1.87 1.063l4.88-1.313L2318 265l-4.56 2.688-4.88-1.313c-.81-.25-1.62.25-1.87 1.063-.19.812.25 1.624 1.06 1.812l2 .562-2.06 1.188a1.41 1.41 0 0 0-.57 2c.44.75 1.32 1 2.07.562l2.06-1.187-.56 2c-.19.813.25 1.625 1.06 1.813.81.25 1.63-.25 1.87-1.063l1.32-4.875 4.56-2.625v5.313l-3.56 3.562c-.63.562-.63 1.5 0 2.062.56.626 1.5.626 2.12 0l1.44-1.437v2.375c0 .875.62 1.5 1.5 1.5.81 0 1.5-.625 1.5-1.5v-2.375l1.44 1.437c.25.313.68.438 1.06.438s.75-.125 1.06-.438c.56-.562.56-1.5 0-2.062l-3.56-3.562v-5.313l4.56 2.625 1.32 4.875c.18.813 1 1.313 1.81 1.063.81-.188 1.31-1 1.06-1.813l-.5-2 2.06 1.187a1.4 1.4 0 0 0 2-.562c.44-.688.19-1.625-.5-2l-2.06-1.188 1.94-.562c.43-.062.75-.375.93-.688.19-.312.26-.75.13-1.124zM2163.64 482.487a4.495 4.495 0 0 1 0-6.364c1.72-1.723 4.64-1.723 6.36 0a4.495 4.495 0 0 1 0 6.364c-1.79 1.79-4.57 1.79-6.36 0z" fill="#8991A6"/><path fill-rule="evenodd" clip-rule="evenodd" d="M2186.97 452.789c.6.596.53 1.591 0 2.121l-9.54 9.546 4.31 4.309 9.54-9.546c.53-.53 1.53-.597 2.12 0l3.45 3.447c.46.464.53 1.193.27 1.724l-3.92 8.419c.87.199 1.66.596 2.32 1.259 1.73 1.724 1.66 4.574-.06 6.298l-4.24 4.243c-1 .994-2.32 1.524-3.65 1.392l-.46-.067-.67 1.459c-2.38 5.038-6.36 9.281-11.53 11.269-13.66 5.436-22.94-4.507-22.94-4.507s-9.88-9.215-4.44-22.871c1.99-5.171 6.23-9.148 11.27-11.535l23-10.673c.53-.265 1.26-.198 1.73.266l3.44 3.447zm-30.76 37.123c.6.597 1.53.597 2.12 0 .54-.53.6-1.525 0-2.121-.53-.531-1.59-.531-2.12 0-.59.596-.53 1.591 0 2.121zm8.49 4.243c.6.596 1.52.596 2.12 0 .53-.531.6-1.525 0-2.122-.53-.53-1.59-.53-2.12 0-.6.597-.53 1.591 0 2.122zm-12.73-12.728c.6.596 1.53.596 2.12 0 .53-.531.6-1.525 0-2.122-.53-.53-1.59-.53-2.12 0-.6.597-.53 1.591 0 2.122zm9.55 3.182c2.98 2.983 7.62 2.983 10.6 0 2.92-2.917 2.92-7.558 0-10.607-2.91-2.917-7.69-2.917-10.6 0-2.99 2.983-2.92 7.69 0 10.607z" fill="#8991A6"/><path d="M800.25 243.438c-.187-.813-1-1.313-1.812-1.063l-4.875 1.313L789 241l4.563-2.625 4.875 1.313c.812.25 1.625-.25 1.812-1.063.25-.813-.25-1.625-1.062-1.813l-1.938-.562 2.063-1.188c.687-.374.937-1.312.5-2.062-.375-.688-1.313-.938-2-.5l-2.063 1.188.5-2a1.404 1.404 0 0 0-.125-1.126c-.187-.312-.5-.562-.937-.687-.813-.25-1.625.25-1.813 1.063l-1.312 4.874-4.563 2.626v-5.313l3.563-3.563c.562-.562.562-1.5 0-2.062-.625-.625-1.563-.625-2.125 0l-1.438 1.438V226.5c0-.812-.687-1.5-1.5-1.5-.875 0-1.5.688-1.5 1.5v2.438l-1.437-1.438c-.625-.625-1.563-.625-2.125 0a1.368 1.368 0 0 0 0 2.062l3.562 3.563v5.313l-4.562-2.626-1.313-4.874c-.25-.813-1.062-1.313-1.875-1.063-.812.187-1.25 1-1.062 1.813l.562 2-2.062-1.188c-.75-.438-1.625-.188-2.063.5-.437.75-.187 1.688.563 2.062l2.062 1.188-2 .562c-.812.188-1.25 1-1.062 1.813.25.813 1.062 1.313 1.875 1.063l4.875-1.313L783 241l-4.562 2.688-4.875-1.313c-.813-.25-1.625.25-1.875 1.063-.188.812.25 1.624 1.062 1.812l2 .562-2.062 1.188c-.75.375-1 1.312-.563 2 .438.75 1.313 1 2.063.562l2.062-1.187-.562 2c-.188.813.25 1.625 1.062 1.813.813.25 1.625-.25 1.875-1.063l1.313-4.875 4.562-2.625v5.313l-3.562 3.562a1.368 1.368 0 0 0 0 2.062c.562.626 1.5.626 2.125 0l1.437-1.437v2.375c0 .875.625 1.5 1.5 1.5.813 0 1.5-.625 1.5-1.5v-2.375l1.438 1.437c.25.313.687.438 1.062.438s.75-.125 1.063-.438c.562-.562.562-1.5 0-2.062l-3.563-3.562v-5.313l4.563 2.625 1.312 4.875c.188.813 1 1.313 1.813 1.063.812-.188 1.312-1 1.062-1.813l-.5-2 2.063 1.187a1.402 1.402 0 0 0 2-.562c.437-.688.187-1.625-.5-2l-2.063-1.188 1.938-.562c.437-.062.75-.375.937-.688a1.4 1.4 0 0 0 .125-1.124zM563.438 315.375c.812-.25 1.625.25 1.812 1.063a1.4 1.4 0 0 1-.125 1.124c-.187.313-.5.626-.937.688l-1.938.562 2.063 1.188c.687.375.937 1.312.5 2-.375.75-1.313 1-2 .562l-2.063-1.187.5 2c.25.813-.25 1.625-1.062 1.813-.813.25-1.625-.25-1.813-1.063l-1.312-4.875-4.563-2.625v5.313l3.563 3.562c.562.562.562 1.5 0 2.062A1.464 1.464 0 0 1 555 328c-.375 0-.812-.125-1.062-.438l-1.438-1.437v2.375c0 .875-.687 1.5-1.5 1.5-.875 0-1.5-.625-1.5-1.5v-2.375l-1.437 1.437c-.625.626-1.563.626-2.125 0a1.368 1.368 0 0 1 0-2.062l3.562-3.562v-5.313l-4.562 2.625-1.313 4.875c-.25.813-1.062 1.313-1.875 1.063-.812-.188-1.25-1-1.062-1.813l.562-2-2.062 1.187c-.75.438-1.625.188-2.063-.562a1.402 1.402 0 0 1 .563-2l2.062-1.188-2-.562c-.812-.188-1.25-1-1.062-1.812.25-.813 1.062-1.313 1.875-1.063l4.875 1.313L548 314l-4.562-2.625-4.875 1.313c-.813.25-1.625-.25-1.875-1.063-.188-.813.25-1.625 1.062-1.813l2-.562-2.062-1.188c-.75-.374-1-1.312-.563-2.062.438-.688 1.313-.938 2.063-.5l2.062 1.188-.562-2c-.188-.813.25-1.626 1.062-1.813.813-.25 1.625.25 1.875 1.063l1.313 4.874 4.562 2.626v-5.313l-3.562-3.563a1.368 1.368 0 0 1 0-2.062c.562-.625 1.5-.625 2.125 0l1.437 1.438V299.5c0-.812.625-1.5 1.5-1.5.813 0 1.5.688 1.5 1.5v2.438l1.438-1.438c.562-.625 1.5-.625 2.125 0 .562.562.562 1.5 0 2.062l-3.563 3.563v5.313l4.563-2.626 1.312-4.874c.188-.813 1-1.313 1.813-1.063.437.125.75.375.937.687.188.313.25.75.125 1.126l-.5 2 2.063-1.188c.687-.438 1.625-.188 2 .5.437.75.187 1.688-.5 2.062l-2.063 1.188 1.938.562c.812.188 1.312 1 1.062 1.813-.187.813-1 1.313-1.812 1.063l-4.875-1.313L554 314l4.563 2.688 4.875-1.313zM2197.25 326.438c-.19-.813-1-1.313-1.81-1.063l-4.88 1.313L2186 324l4.56-2.625 4.88 1.313c.81.25 1.62-.25 1.81-1.063.25-.813-.25-1.625-1.06-1.813l-1.94-.562 2.06-1.188c.69-.374.94-1.312.5-2.062-.37-.688-1.31-.938-2-.5l-2.06 1.188.5-2c.13-.376.06-.813-.12-1.126-.19-.312-.5-.562-.94-.687a1.42 1.42 0 0 0-1.81 1.063l-1.32 4.874-4.56 2.626v-5.313l3.56-3.563c.57-.562.57-1.5 0-2.062-.62-.625-1.56-.625-2.12 0l-1.44 1.438V309.5c0-.812-.69-1.5-1.5-1.5-.87 0-1.5.688-1.5 1.5v2.438l-1.44-1.438c-.62-.625-1.56-.625-2.12 0-.63.562-.63 1.5 0 2.062l3.56 3.563v5.313l-4.56-2.626-1.31-4.874c-.25-.813-1.07-1.313-1.88-1.063-.81.187-1.25 1-1.06 1.813l.56 2-2.06-1.188a1.5 1.5 0 0 0-2.06.5c-.44.75-.19 1.688.56 2.062l2.06 1.188-2 .562c-.81.188-1.25 1-1.06 1.813.25.813 1.06 1.313 1.87 1.063l4.88-1.313L2180 324l-4.56 2.688-4.88-1.313c-.81-.25-1.62.25-1.87 1.063-.19.812.25 1.624 1.06 1.812l2 .562-2.06 1.188a1.4 1.4 0 0 0-.56 2c.43.75 1.31 1 2.06.562l2.06-1.187-.56 2c-.19.813.25 1.625 1.06 1.813.81.25 1.63-.25 1.88-1.063l1.31-4.875 4.56-2.625v5.313l-3.56 3.562c-.63.562-.63 1.5 0 2.062.56.626 1.5.626 2.12 0l1.44-1.437v2.375c0 .875.63 1.5 1.5 1.5.81 0 1.5-.625 1.5-1.5v-2.375l1.44 1.437c.25.313.69.438 1.06.438.38 0 .75-.125 1.06-.438.57-.562.57-1.5 0-2.062l-3.56-3.562v-5.313l4.56 2.625 1.32 4.875c.18.813 1 1.313 1.81 1.063.81-.188 1.31-1 1.06-1.813l-.5-2 2.06 1.187a1.4 1.4 0 0 0 2-.562c.44-.688.19-1.625-.5-2l-2.06-1.188 1.94-.562c.44-.062.75-.375.94-.688.18-.312.25-.75.12-1.124zM424.25 787l22.5 26c4.75 5.5 1 14-6.25 14h-95.25c-7.25 0-11-8.5-6.25-14l22.5-26h-9c-6.5 0-10-7.25-5.75-12l23.75-28h-11.25c-5.5 0-8.25-5.5-5-9.25l33.75-36.5c2.5-2.75 7.25-2.75 9.75 0l33.75 36.5c3.25 3.75.5 9.25-5 9.25h-11l23.75 28c4 4.75.5 12-6 12h-9zM814.75 813l-22.5-26h9c6.5 0 10-7.25 6-12l-23.75-28h11c5.5 0 8.25-5.5 5-9.25l-33.75-36.5c-2.5-2.75-7.25-2.75-9.75 0l-33.75 36.5c-3.25 3.75-.5 9.25 5 9.25h11.25l-23.75 28c-4.25 4.75-.75 12 5.75 12h9L707 813c-4.75 5.5-1 14 6.25 14h95.25c7.25 0 11-8.5 6.25-14z" fill="#fff"/><path fill-rule="evenodd" clip-rule="evenodd" d="M2069.44 769.625l-11.06-10.875c-2.26-2.25-5.26-3.562-8.44-3.562h-19.13v45h.19c0 6.374 4.12 12.374 10.31 14.25 10.13 3 19.69-4.5 19.69-14.25v-3h6c3.19 0 6-2.813 6-6v-13.126c-.19-3.187-1.31-6.187-3.56-8.437zm-23.63 36.563c-3.19 0-6-2.813-6-6 0-3.376 2.81-6 6-6 3.38 0 6 2.624 6 6 0 3.187-2.62 6-6 6zm-3-33v-9h7.13c.75 0 1.5.187 2.06.75l8.25 8.25h-17.44z" fill="#fff"/><path fill-rule="evenodd" clip-rule="evenodd" d="M2066.81 743c0-9.938-8.06-17.812-18-17.812h-24v-3c0-1.688-1.31-3.188-3-3.188h-24c-1.5 0-3 1.5-3 3.188v3h-30c-6.56 0-11.81 5.25-11.81 12v36.937c0 3.187 1.12 6.187 3.38 8.437l14.43 14.626v2.062c0 7.875 5.81 15 13.5 15.75 9 .938 16.5-6.188 16.5-15v-3h24v-47.812h36c3.38 0 6.19-2.813 6-6.188zm-81 63.188c-3.19 0-6-2.813-6-6 0-3.376 2.81-6 6-6 3.38 0 6 2.624 6 6 0 3.187-2.62 6-6 6zm15-48c0 1.5-1.31 3-3 3h-24c-1.5 0-3-1.5-3-3v-12c0-1.688 1.5-3 3-3h24c1.69 0 3 1.312 3 3v12zM1080 768.25l.75 1.875c.5 1 0 2.125-1.12 2.5l-16.75 7c0 1.5-.38 3-.88 4.375 4.25 3.75 7 9 7 15 0 6.625-3.25 12.375-8.12 16H1037c-4.87-3.625-8-9.375-8-16 0-6 2.63-11.25 6.88-15-.5-1.375-.88-2.875-.88-4.375l-16.75-7c-1.12-.375-1.62-1.5-1.12-2.5l.75-1.875c.37-1 1.5-1.5 2.5-1l3.62 1.375V765c0-1.125.88-2 2-2h2c1 0 2 .875 2 2v5.875l-.12.125 6.12 2.625c.75-1.5 1.63-3 2.75-4.125-1.12-1.875-1.75-4.125-1.75-6.5 0-6.625 5.25-12 12-12 6.63 0 12 5.375 12 12 0 2.375-.75 4.625-1.87 6.5 1.12 1.125 2 2.625 2.75 4.125L1068 771l-.12-.125V765c0-1.125 1-2 2-2h2c1.12 0 2 .875 2 2v3.625l3.62-1.375c1-.5 2.13 0 2.5 1zm-37-7.25c0 1.125.88 2 2 2 1 0 2-.875 2-2 0-1-1-2-2-2-1.12 0-2 1-2 2zm4 34c0 1.125.88 2 2 2 1 0 2-.875 2-2 0-1-1-2-2-2-1.12 0-2 1-2 2zm0-8c0 1.125.88 2 2 2 1 0 2-.875 2-2 0-1-1-2-2-2-1.12 0-2 1-2 2zm0-8c0 1.125.88 2 2 2 1 0 2-.875 2-2 0-1-1-2-2-2-1.12 0-2 1-2 2zm0-13c0 1.125 2 4 2 4s2-2.875 2-4c0-1-1-2-2-2-1.12 0-2 1-2 2zm4-5c0 1.125.88 2 2 2 1 0 2-.875 2-2 0-1-1-2-2-2-1.12 0-2 1-2 2z" fill="#fff"/><path d="M1297 757c0 3.375-2.75 6-6 6-3.38 0-6-2.625-6-6 0-3.25 2.62-6 6-6 3.25 0 6 2.75 6 6zM1272.38 802c.74-.75 1.37-1.75 1.74-2.75l2.63-6.375c.27.408.32.529.39.64.09.156.22.291 1.03 1.157v.003c.74.797 2.06 2.212 4.45 4.825l-1.62 4.25c-.5 1-1 2-1.88 2.75l-7.37 7.375c-1.5 1.625-4.13 1.625-5.63 0-1.62-1.5-1.62-4.125 0-5.625l6.26-6.25z" fill="#fff"/><path d="M1299.88 780.25l2.87 1.5c2 1 2.75 3.375 1.75 5.375-1 1.875-3.38 2.75-5.25 1.75l-3-1.5c-1.87-.875-3.25-2.625-3.87-4.625l-.76-2-2.12 8.5 5.75 6.25c.87 1 1.5 2.125 1.75 3.5l2.88 11.125c.5 2.125-.88 4.25-3 4.875-2.13.5-4.26-.875-4.76-3l-2.37-9.125c-.25-1.25-.87-2.5-1.87-3.5l-7.5-8.125c-1.76-2-2.5-4.75-1.76-7.375l1.88-7.625-3.38 1.375c-.87.375-1.62 1.125-2.12 2l-.75 1.625c-1 2-3.37 2.75-5.37 1.75-1.88-.875-2.76-3.375-1.76-5.25l.88-1.75c1.25-2.625 3.5-4.75 6.12-5.75.77-.301 1.47-.59 2.14-.862 3.47-1.42 5.84-2.388 9.62-2.388 5.74.125 10.87 4 12.74 9.5l1.26 3.75zM974.5 782.75c4.125 0 7.5 3.375 7.5 7.5 0 4.219-3.375 7.5-7.5 7.5-4.219 0-7.5-3.281-7.5-7.5 0-4.125 3.281-7.5 7.5-7.5zM958 807.5c0-4.125 3.281-7.5 7.5-7.5 4.125 0 7.5 3.375 7.5 7.5 0 4.219-3.375 7.5-7.5 7.5-4.219 0-7.5-3.281-7.5-7.5zM992.5 774.5c0 4.219-3.375 7.5-7.5 7.5-4.219 0-7.5-3.281-7.5-7.5 0-4.125 3.281-7.5 7.5-7.5 4.125 0 7.5 3.375 7.5 7.5zM997 807.5c0-4.125 3.28-7.5 7.5-7.5 4.12 0 7.5 3.375 7.5 7.5 0 4.219-3.38 7.5-7.5 7.5-4.22 0-7.5-3.281-7.5-7.5zM977.5 807.5c0-4.125 3.281-7.5 7.5-7.5 4.125 0 7.5 3.375 7.5 7.5 0 4.219-3.375 7.5-7.5 7.5-4.219 0-7.5-3.281-7.5-7.5zM995.5 782.75c4.125 0 7.5 3.375 7.5 7.5 0 4.219-3.375 7.5-7.5 7.5-4.219 0-7.5-3.281-7.5-7.5 0-4.125 3.281-7.5 7.5-7.5zM2269.25 791l22.5 26c4.75 5.5 1 14-6.25 14h-95.25c-7.25 0-11-8.5-6.25-14l22.5-26h-9c-6.5 0-10-7.25-5.75-12l23.75-28h-11.25c-5.5 0-8.25-5.5-5-9.25l33.75-36.5c2.5-2.75 7.25-2.75 9.75 0l33.75 36.5c3.25 3.75.5 9.25-5 9.25h-11l23.75 28c4 4.75.5 12-6 12h-9zM1659.75 813l-22.5-26h9c6.5 0 10-7.25 6-12l-23.75-28h11c5.5 0 8.25-5.5 5-9.25l-33.75-36.5c-2.5-2.75-7.25-2.75-9.75 0l-33.75 36.5c-3.25 3.75-.5 9.25 5 9.25h11.25l-23.75 28c-4.25 4.75-.75 12 5.75 12h9l-22.5 26c-4.75 5.5-1 14 6.25 14h95.25c7.25 0 11-8.5 6.25-14zM2334.44 562.375c.81-.25 1.62.25 1.81 1.063.13.374.06.812-.12 1.124-.19.313-.5.626-.94.688l-1.94.562 2.06 1.188c.69.375.94 1.312.5 2a1.4 1.4 0 0 1-2 .562l-2.06-1.187.5 2c.25.813-.25 1.625-1.06 1.813a1.42 1.42 0 0 1-1.81-1.063l-1.32-4.875-4.56-2.625v5.313l3.56 3.562c.57.562.57 1.5 0 2.062-.31.313-.68.438-1.06.438-.37 0-.81-.125-1.06-.438l-1.44-1.437v2.375c0 .875-.69 1.5-1.5 1.5-.87 0-1.5-.625-1.5-1.5v-2.375l-1.44 1.437c-.62.626-1.56.626-2.12 0-.63-.562-.63-1.5 0-2.062l3.56-3.562v-5.313l-4.56 2.625-1.31 4.875c-.25.813-1.07 1.313-1.88 1.063-.81-.188-1.25-1-1.06-1.813l.56-2-2.06 1.187c-.75.438-1.63.188-2.06-.562a1.4 1.4 0 0 1 .56-2l2.06-1.188-2-.562c-.81-.188-1.25-1-1.06-1.812.25-.813 1.06-1.313 1.87-1.063l4.88 1.313L2319 561l-4.56-2.625-4.88 1.313c-.81.25-1.62-.25-1.87-1.063-.19-.813.25-1.625 1.06-1.813l2-.562-2.06-1.188c-.75-.374-1-1.312-.56-2.062a1.5 1.5 0 0 1 2.06-.5l2.06 1.188-.56-2c-.19-.813.25-1.626 1.06-1.813.81-.25 1.63.25 1.88 1.063l1.31 4.874 4.56 2.626v-5.313l-3.56-3.563c-.63-.562-.63-1.5 0-2.062.56-.625 1.5-.625 2.12 0l1.44 1.438V546.5c0-.812.63-1.5 1.5-1.5.81 0 1.5.688 1.5 1.5v2.438l1.44-1.438c.56-.625 1.5-.625 2.12 0 .57.562.57 1.5 0 2.062l-3.56 3.563v5.313l4.56-2.626 1.32-4.874a1.42 1.42 0 0 1 1.81-1.063c.44.125.75.375.94.687.18.313.25.75.12 1.126l-.5 2 2.06-1.188c.69-.438 1.63-.188 2 .5.44.75.19 1.688-.5 2.062l-2.06 1.188 1.94.562c.81.188 1.31 1 1.06 1.813-.19.813-1 1.313-1.81 1.063l-4.88-1.313L2325 561l4.56 2.688 4.88-1.313zM332.25 459.438c-.187-.813-1-1.313-1.812-1.063l-4.875 1.313L321 457l4.563-2.625 4.875 1.313c.812.25 1.625-.25 1.812-1.063.25-.813-.25-1.625-1.062-1.813l-1.938-.562 2.063-1.188c.687-.374.937-1.312.5-2.062-.375-.688-1.313-.938-2-.5l-2.063 1.188.5-2a1.404 1.404 0 0 0-.125-1.126c-.187-.312-.5-.562-.937-.687-.813-.25-1.625.25-1.813 1.063l-1.312 4.874-4.563 2.626v-5.313l3.563-3.563c.562-.562.562-1.5 0-2.062-.625-.625-1.563-.625-2.125 0l-1.438 1.438V442.5c0-.812-.687-1.5-1.5-1.5-.875 0-1.5.688-1.5 1.5v2.438l-1.437-1.438c-.625-.625-1.563-.625-2.125 0a1.368 1.368 0 0 0 0 2.062l3.562 3.563v5.313l-4.562-2.626-1.313-4.874c-.25-.813-1.062-1.313-1.875-1.063-.812.187-1.25 1-1.062 1.813l.562 2-2.062-1.188c-.75-.438-1.625-.188-2.063.5-.437.75-.187 1.688.563 2.062l2.062 1.188-2 .562c-.812.188-1.25 1-1.062 1.813.25.813 1.062 1.313 1.875 1.063l4.875-1.313L315 457l-4.562 2.688-4.875-1.313c-.813-.25-1.625.25-1.875 1.063-.188.812.25 1.624 1.062 1.812l2 .562-2.062 1.188c-.75.375-1 1.312-.563 2 .438.75 1.313 1 2.063.562l2.062-1.187-.562 2c-.188.813.25 1.625 1.062 1.813.813.25 1.625-.25 1.875-1.063l1.313-4.875 4.562-2.625v5.313l-3.562 3.562a1.368 1.368 0 0 0 0 2.062c.562.626 1.5.626 2.125 0l1.437-1.437v2.375c0 .875.625 1.5 1.5 1.5.813 0 1.5-.625 1.5-1.5v-2.375l1.438 1.437c.25.313.687.438 1.062.438s.75-.125 1.063-.438c.562-.562.562-1.5 0-2.062l-3.563-3.562v-5.313l4.563 2.625 1.312 4.875c.188.813 1 1.313 1.813 1.063.812-.188 1.312-1 1.062-1.813l-.5-2 2.063 1.187a1.402 1.402 0 0 0 2-.562c.437-.688.187-1.625-.5-2l-2.063-1.188 1.938-.562c.437-.062.75-.375.937-.688a1.4 1.4 0 0 0 .125-1.124z" fill="#fff"/><path fill-rule="evenodd" clip-rule="evenodd" d="M547.688 758.188l12.937 3.656c1.969.562 3.375 2.25 3.375 4.359V770c0 2.531-2.109 4.5-4.5 4.5h-9l-4.5 9v29.25c0 1.266-1.125 2.25-2.25 2.25h-9a2.22 2.22 0 0 1-2.25-2.25V792.5h-22.219l-2.672 7.312 3.657 12.516c.422 1.406-.704 2.672-2.11 2.672h-9c-.984 0-1.968-.703-2.25-1.688l-3.515-11.531c-.422-1.828-.282-3.656.421-5.343l1.688-4.5v-6.891L492 788v-9c0-4.922 3.938-9 9-9h33.75l4.641-9.422-11.11-3.234c-2.812-.703-4.922-3.375-4.922-6.469v-6.75c0-.563.563-1.125 1.125-1.125h2.25c.704 0 1.125.562 1.125 1.125v6.75c0 .984.703 1.969 1.688 2.25l2.25.563 2.391-2.954c.281-.422.562-.843.562-1.406v-5.203c0-.563.422-1.125 1.125-1.125h2.25c.563 0 1.125.562 1.125 1.125v5.203c0 1.547-.562 3.094-1.547 4.219l-1.125 1.547 4.781 1.265 5.907-2.953c1.125-.562 1.968-1.406 2.672-2.39l2.531-3.797c.281-.422.984-.563 1.547-.281l1.828 1.265c.562.281.703.985.281 1.547l-2.531 3.797c-1.125 1.687-2.532 2.953-4.36 3.797l-1.546.844zm.562 7.312a2.22 2.22 0 0 0 2.25 2.25c1.125 0 2.25-.984 2.25-2.25 0-1.125-1.125-2.25-2.25-2.25-1.266 0-2.25 1.125-2.25 2.25z" fill="#fff"/></g><defs><clipPath id="clip0"><path fill="#fff" d="M0 0h2667v815H0z"/></clipPath></defs></svg>